<?xml version="1.0" standalone="no"?>
<!DOCTYPE svg PUBLIC "-//W3C//DTD SVG 20010904//EN"
 "http://www.w3.org/TR/2001/REC-SVG-20010904/DTD/svg10.dtd">
<svg version="1.0" xmlns="http://www.w3.org/2000/svg"
 width="1024.000000pt" height="1024.000000pt" viewBox="0 0 1024.000000 1024.000000"
 preserveAspectRatio="xMidYMid meet">
<metadata>
Created by potrace 1.11, written by Peter Selinger 2001-2013
</metadata>
<g transform="translate(0.000000,1024.000000) scale(0.100000,-0.100000)"
fill="#000000" stroke="none">
<path d="M2479 9833 c-1 -5 -1 -11 -1 -15 1 -3 -5 -9 -13 -12 -10 -3 -12 0 -8
12 4 12 -2 10 -21 -8 -15 -14 -27 -20 -26 -15 5 21 -1 29 -10 15 -8 -13 -10
-12 -10 3 0 10 -5 15 -10 12 -6 -4 -8 -10 -5 -15 3 -5 0 -12 -6 -16 -7 -4 -9
-3 -6 3 4 6 0 13 -8 17 -8 3 -15 1 -15 -3 0 -5 -8 -12 -17 -16 -15 -5 -16 -4
-5 6 6 7 12 18 12 24 0 6 -3 7 -8 0 -12 -17 -47 -41 -38 -27 4 6 2 12 -3 12
-6 0 -11 -5 -11 -11 0 -8 -4 -8 -14 0 -11 9 -15 9 -19 -1 -4 -10 -6 -9 -6 1
-1 11 -4 10 -14 -3 -13 -17 -14 -17 -30 -1 -16 15 -17 15 -17 -7 0 -18 -2 -20
-10 -8 -5 8 -10 11 -10 6 0 -5 -7 -2 -17 5 -15 13 -15 12 -3 -11 12 -23 12
-24 -3 -11 -15 12 -17 11 -17 -5 -1 -18 -1 -18 -11 -1 -10 18 -11 18 -32 0
-14 -12 -18 -13 -12 -3 4 8 -3 5 -16 -7 -20 -18 -28 -20 -39 -10 -10 10 -12 9
-7 -4 3 -9 0 -16 -9 -16 -7 0 -11 4 -9 8 3 4 -4 5 -15 2 -11 -3 -17 -10 -14
-15 4 -6 -3 -5 -15 1 -18 10 -23 9 -31 -11 -5 -13 -9 -17 -9 -10 -1 6 -6 12
-12 12 -5 0 -7 -4 -4 -10 3 -5 1 -10 -5 -10 -6 0 -8 -5 -4 -12 5 -8 1 -7 -10
2 -16 13 -20 12 -31 -3 -14 -19 -30 -24 -19 -5 4 7 3 8 -4 4 -7 -4 -12 -14
-12 -22 0 -8 -5 -12 -10 -9 -6 4 -18 1 -27 -7 -14 -11 -16 -11 -8 1 6 10 4 12
-4 7 -7 -5 -10 -14 -8 -20 4 -9 -4 -12 -24 -11 -15 1 -26 -1 -24 -4 2 -4 -4
-15 -12 -26 -15 -19 -15 -19 -8 5 6 25 6 25 -12 -3 -11 -15 -22 -24 -26 -21
-3 3 -15 -1 -27 -9 -12 -8 -17 -18 -12 -21 6 -3 13 -1 15 4 3 6 4 5 3 -1 -1
-7 -12 -13 -24 -14 -12 -1 -30 -10 -41 -19 -11 -10 -25 -15 -30 -11 -6 3 -11
-1 -11 -10 0 -8 -7 -18 -15 -21 -8 -4 -12 -11 -9 -16 4 -6 -2 -5 -14 1 -18 10
-20 9 -17 -10 3 -17 2 -19 -10 -9 -12 10 -13 8 -10 -8 2 -14 -1 -19 -14 -15
-9 2 -27 -7 -41 -24 -14 -15 -18 -23 -10 -18 10 6 9 4 -2 -6 -9 -9 -14 -20
-10 -25 4 -5 -1 -2 -11 5 -15 12 -17 12 -11 -4 5 -13 4 -16 -4 -11 -7 4 -12 1
-12 -7 0 -7 -11 -19 -24 -27 -16 -8 -22 -18 -19 -28 4 -10 2 -13 -5 -8 -7 4
-12 2 -12 -4 0 -6 -4 -9 -9 -5 -5 3 -13 0 -17 -6 -4 -7 -3 -9 4 -5 6 3 13 2
17 -4 3 -5 -1 -10 -9 -10 -9 0 -16 -6 -16 -14 0 -21 -27 -40 -33 -24 -3 7 -6
1 -6 -14 -1 -19 -5 -26 -15 -22 -9 4 -13 -2 -11 -20 3 -23 1 -25 -18 -14 -20
10 -21 10 -8 -5 9 -12 10 -17 2 -17 -7 0 -9 -4 -6 -10 3 -5 1 -10 -4 -10 -6 0
-11 -7 -11 -15 0 -8 -3 -15 -7 -15 -12 0 -33 -52 -26 -64 3 -6 3 -8 -2 -4 -4
4 -17 3 -27 -3 -15 -8 -17 -14 -9 -22 9 -9 6 -16 -11 -30 -13 -10 -17 -16 -10
-12 14 7 16 -4 2 -25 -6 -10 -10 -11 -10 -2 0 6 -4 12 -9 12 -11 0 -9 -19 3
-39 7 -10 6 -12 -4 -6 -8 5 -11 3 -8 -6 3 -8 -2 -20 -11 -27 -10 -8 -10 -11
-2 -6 10 5 12 3 7 -5 -5 -7 -14 -10 -21 -8 -8 4 -11 -3 -9 -19 1 -13 -2 -26
-7 -30 -5 -3 -5 -13 1 -24 8 -16 7 -18 -10 -15 -11 2 -23 -1 -26 -7 -4 -6 -3
-8 2 -5 6 3 16 2 24 -4 12 -7 12 -9 1 -9 -9 0 -11 -7 -8 -21 4 -15 2 -18 -7
-10 -8 7 -12 4 -12 -10 0 -10 5 -19 11 -19 5 0 3 -5 -5 -11 -12 -8 -12 -12 -2
-16 10 -4 9 -9 -5 -20 -10 -8 -12 -11 -4 -7 11 5 10 1 -2 -17 -20 -28 -22 -43
-4 -34 6 4 5 1 -4 -7 -22 -19 -29 -44 -16 -57 9 -9 8 -14 -3 -21 -9 -6 -10
-10 -3 -10 13 0 12 -18 -1 -39 -6 -9 -5 -12 2 -7 12 7 10 -20 -3 -31 -4 -4 -5
-2 0 6 6 10 4 12 -5 6 -10 -6 -10 -11 3 -20 17 -12 24 -31 9 -21 -5 3 -9 -1
-9 -9 0 -8 3 -12 7 -10 6 4 6 -17 1 -58 -1 -5 -7 -5 -13 -1 -10 6 -10 5 -1 -7
10 -12 10 -18 0 -28 -9 -10 -8 -11 6 -5 19 7 21 -15 2 -28 -6 -5 -5 -8 4 -8
10 0 11 -3 2 -14 -9 -11 -9 -16 0 -21 8 -6 8 -10 -2 -16 -11 -6 -10 -9 4 -15
17 -6 17 -7 0 -21 -10 -8 -12 -12 -5 -8 16 8 16 -27 -1 -44 -10 -11 -9 -12 2
-6 11 6 13 4 7 -10 -5 -14 -4 -15 7 -7 10 8 13 6 14 -9 1 -11 -1 -17 -5 -15
-4 3 -8 -4 -8 -14 0 -14 3 -16 13 -8 11 8 12 7 7 -7 -5 -11 -4 -16 3 -12 5 3
10 0 10 -8 0 -8 -5 -11 -11 -8 -6 4 -5 -1 3 -10 10 -12 10 -17 1 -17 -6 0 -10
-6 -7 -12 2 -7 13 -12 23 -11 10 1 13 0 7 -3 -7 -3 -13 -12 -13 -20 0 -9 5
-12 13 -8 9 5 9 4 -1 -7 -10 -11 -8 -16 10 -27 13 -7 16 -11 7 -9 -22 7 -20
-22 2 -36 13 -8 15 -16 9 -33 -8 -19 -6 -22 9 -19 15 3 17 -1 13 -17 -3 -11 1
-24 9 -29 12 -7 12 -9 -1 -10 -10 0 -8 -3 5 -9 19 -8 19 -9 1 -9 -17 -1 -18
-3 -4 -13 8 -7 25 -30 37 -50 21 -34 21 -37 4 -32 -14 4 -13 2 3 -8 12 -7 19
-19 16 -28 -4 -13 -3 -13 11 -2 13 11 15 10 10 -7 -3 -12 -10 -18 -16 -14 -6
3 -7 1 -3 -6 4 -6 12 -8 18 -5 7 5 9 1 5 -9 -4 -11 -2 -14 9 -10 14 5 18 -5
15 -39 -1 -9 7 -19 19 -23 11 -3 18 -11 14 -16 -3 -5 -10 -7 -15 -4 -5 4 -9 1
-9 -4 0 -11 13 -15 35 -12 6 1 0 -7 -12 -18 -12 -10 -20 -21 -17 -24 3 -3 -4
-8 -15 -12 -12 -3 -21 -11 -21 -17 0 -6 7 -5 17 3 16 12 17 12 6 -2 -7 -9 -9
-20 -5 -24 4 -5 1 -5 -5 -1 -8 4 -13 1 -13 -9 0 -8 -7 -18 -15 -21 -11 -5 -12
-11 -4 -25 5 -11 6 -18 2 -17 -5 2 -20 -8 -33 -21 -14 -13 -20 -21 -14 -18 7
4 14 0 17 -8 4 -10 1 -12 -10 -8 -13 5 -15 2 -10 -11 5 -13 1 -19 -13 -23 -17
-5 -18 -8 -8 -21 11 -13 11 -14 0 -8 -9 6 -11 1 -8 -18 3 -19 1 -23 -11 -19
-11 4 -14 2 -9 -5 4 -7 3 -12 -2 -12 -6 0 -13 -7 -16 -16 -6 -15 -4 -15 11 -3
14 11 14 9 -2 -9 -16 -20 -17 -25 -5 -33 12 -9 10 -10 -7 -6 -25 6 -37 -14
-20 -33 9 -10 9 -11 0 -6 -6 3 -14 2 -18 -4 -3 -5 -1 -10 5 -10 6 0 8 -5 5
-10 -4 -6 -11 -8 -16 -5 -5 4 -4 -6 1 -21 9 -24 9 -25 -5 -14 -13 11 -15 8
-16 -21 -1 -19 -1 -37 0 -41 0 -5 -5 -8 -13 -8 -8 0 -18 -5 -22 -12 -5 -8 -2
-9 11 -4 15 5 16 4 5 -9 -7 -8 -17 -12 -22 -9 -6 4 -5 -2 1 -14 8 -15 7 -23
-4 -32 -8 -7 -15 -24 -15 -39 0 -21 -2 -23 -11 -11 -9 12 -10 11 -6 -7 3 -13
0 -23 -6 -23 -6 0 -7 -3 -4 -7 4 -3 1 -13 -6 -21 -6 -9 -7 -13 -1 -9 6 3 11 0
11 -8 0 -8 -4 -12 -8 -10 -3 3 -9 -5 -12 -16 -3 -12 -9 -19 -14 -16 -5 3 -9
-3 -9 -13 0 -15 3 -17 16 -7 8 6 4 -2 -10 -17 -14 -16 -19 -26 -12 -22 6 4 12
2 12 -3 0 -6 -4 -11 -10 -11 -5 0 -10 -5 -10 -11 0 -5 5 -7 12 -3 7 5 8 3 4
-5 -5 -7 -14 -10 -22 -7 -8 3 -14 1 -14 -4 0 -6 5 -10 11 -10 5 0 7 -5 4 -10
-4 -6 -11 -7 -17 -4 -7 5 -7 1 0 -12 8 -14 6 -21 -6 -32 -15 -12 -15 -13 3 -7
17 5 16 2 -5 -17 -14 -13 -20 -19 -13 -14 8 5 16 6 19 3 3 -3 -3 -11 -14 -18
-12 -8 -17 -19 -14 -32 3 -12 1 -18 -5 -14 -5 3 -10 0 -10 -8 0 -8 5 -15 11
-15 5 0 1 -7 -10 -16 -13 -11 -14 -14 -3 -11 9 3 16 -1 16 -7 0 -8 -10 -12
-24 -10 -27 3 -28 1 -6 -17 14 -12 16 -12 8 0 -6 10 -4 12 4 7 13 -9 6 -21
-12 -21 -7 -1 -11 -7 -9 -13 1 -7 -3 -22 -9 -34 -9 -16 -8 -19 2 -13 9 6 10 2
6 -16 -4 -13 -7 -30 -7 -37 0 -7 -5 -10 -11 -6 -8 5 -10 -1 -7 -19 3 -15 2
-24 -3 -22 -4 3 -10 1 -14 -5 -3 -5 0 -10 7 -10 9 -1 7 -5 -5 -14 -15 -12 -15
-14 -2 -19 8 -4 12 -13 9 -22 -3 -8 -11 -12 -16 -9 -6 4 -6 -2 1 -14 8 -15 7
-23 -3 -31 -7 -6 -15 -8 -19 -5 -3 3 -3 -4 0 -17 4 -13 2 -20 -3 -16 -5 3 -10
-3 -10 -13 0 -10 4 -16 8 -14 4 3 8 1 8 -5 0 -5 -5 -13 -11 -17 -8 -4 -7 -9 2
-15 10 -6 11 -9 2 -9 -7 0 -13 -5 -13 -11 0 -5 5 -7 11 -3 7 4 10 1 7 -7 -3
-8 -10 -13 -16 -12 -12 3 -6 -23 9 -43 5 -6 3 -11 -6 -11 -8 0 -12 4 -9 9 3 4
-2 5 -11 2 -14 -6 -14 -8 2 -20 16 -12 16 -13 2 -14 -23 0 -31 -26 -13 -41 14
-11 13 -14 -2 -22 -13 -8 -14 -11 -3 -18 12 -7 11 -9 -1 -9 -13 0 -13 -2 0
-10 12 -7 11 -12 -5 -30 -16 -18 -17 -20 -2 -14 13 5 16 2 11 -10 -3 -9 -9
-14 -13 -12 -3 2 -6 -6 -6 -19 0 -13 3 -21 7 -19 4 2 10 -1 14 -7 4 -8 3 -9
-4 -5 -7 4 -12 2 -12 -4 0 -6 -4 -9 -8 -6 -5 3 -9 -1 -9 -9 0 -8 4 -12 8 -10
4 3 9 -2 12 -10 4 -10 1 -12 -10 -8 -11 4 -14 2 -11 -8 3 -8 11 -13 17 -11 7
1 10 -2 6 -7 -3 -6 -13 -7 -23 -4 -15 6 -14 3 2 -16 17 -18 17 -21 3 -15 -12
4 -17 1 -17 -11 0 -9 4 -14 8 -11 5 3 9 -1 9 -9 0 -8 -5 -11 -10 -8 -6 4 -8 0
-4 -9 3 -9 0 -21 -6 -28 -9 -10 -9 -11 0 -6 16 9 17 -6 1 -22 -9 -9 -9 -12 1
-12 11 0 11 -3 0 -16 -10 -13 -10 -17 1 -24 12 -7 11 -12 -4 -28 -13 -15 -14
-22 -5 -28 8 -4 10 -3 5 4 -4 7 -2 12 3 12 14 0 14 -13 -1 -28 -15 -15 -19
-55 -3 -42 7 6 11 3 11 -10 0 -10 -5 -16 -10 -13 -5 4 -7 -1 -3 -10 4 -11 1
-17 -8 -17 -8 0 -15 -5 -15 -11 0 -6 9 -8 23 -4 12 3 18 3 12 -2 -16 -13 -17
-34 -3 -52 12 -14 11 -15 -5 -2 -9 8 -21 11 -24 7 -4 -4 -1 -11 6 -15 8 -5 10
-14 6 -21 -12 -19 -15 -60 -4 -60 5 0 9 -5 9 -11 0 -5 -4 -8 -8 -5 -5 3 -9 -2
-9 -10 0 -9 6 -13 16 -9 11 4 10 0 -4 -15 -16 -18 -17 -23 -5 -30 13 -8 13
-10 0 -11 -10 0 -8 -3 5 -9 16 -7 17 -9 3 -9 -22 -1 -32 -17 -17 -27 7 -4 9
-3 5 4 -7 12 20 10 31 -3 4 -4 3 -5 -3 -2 -7 4 -17 0 -23 -7 -10 -11 -8 -15 6
-19 13 -3 11 -5 -7 -6 -18 -1 -21 -4 -12 -10 17 -11 17 -21 0 -32 -10 -7 -10
-9 0 -9 7 0 10 -5 6 -12 -4 -7 -3 -8 5 -4 6 4 8 12 5 18 -4 7 -2 8 4 4 8 -5 9
-13 3 -25 -5 -9 -6 -23 -1 -31 4 -7 6 -19 3 -27 -3 -7 0 -20 6 -27 8 -10 9
-16 1 -21 -10 -6 -14 1 -10 20 1 5 -2 6 -6 2 -12 -12 -13 -37 -2 -34 6 1 13
-4 16 -12 3 -8 0 -11 -7 -7 -7 5 -9 1 -5 -8 3 -9 10 -16 14 -16 10 0 8 -20 -4
-39 -5 -8 -3 -17 5 -22 12 -8 12 -10 0 -18 -8 -5 -9 -11 -3 -15 12 -7 11 -24
-2 -45 -6 -10 -5 -12 2 -7 8 5 12 -2 12 -19 0 -17 -4 -24 -12 -19 -7 5 -8 3
-4 -5 5 -7 15 -10 23 -6 13 4 14 3 4 -9 -10 -11 -8 -15 6 -19 17 -4 17 -5 0
-6 -15 -1 -16 -5 -7 -21 6 -11 16 -18 21 -14 7 4 7 -1 0 -14 -7 -14 -8 -23 -1
-27 6 -4 8 -11 4 -16 -10 -17 -12 -59 -2 -53 5 4 9 -4 8 -17 -3 -38 -1 -49 11
-49 8 0 8 4 0 14 -9 11 -9 16 0 22 7 4 9 3 5 -4 -3 -5 0 -12 6 -15 10 -3 10
-7 -1 -20 -12 -15 -11 -17 5 -17 17 0 17 -1 -2 -16 -10 -8 -14 -13 -7 -10 14
8 27 -10 13 -19 -6 -4 -2 -15 10 -27 16 -17 17 -24 7 -37 -6 -8 -7 -12 -2 -9
6 4 16 -2 23 -12 10 -16 9 -18 -6 -14 -15 5 -15 4 -2 -8 8 -7 15 -20 15 -28 0
-8 6 -14 13 -12 8 1 11 -2 8 -7 -4 -5 -3 -11 1 -14 5 -2 2 -2 -4 -1 -7 2 -13
-1 -13 -6 0 -6 3 -10 8 -10 4 0 13 -12 20 -28 9 -20 10 -28 1 -31 -7 -2 1 -10
17 -18 16 -7 21 -11 12 -8 -23 6 -23 -11 -1 -19 14 -6 15 -9 4 -15 -9 -6 -7
-10 8 -14 14 -3 19 -10 15 -21 -3 -9 -2 -16 4 -16 5 0 15 -15 23 -32 7 -18 18
-36 23 -40 7 -5 6 -11 -4 -18 -13 -8 -12 -10 3 -10 10 0 17 -8 17 -20 0 -11 7
-23 16 -27 9 -3 14 -13 11 -24 -3 -11 0 -16 8 -13 17 7 35 -19 38 -54 1 -17 4
-30 7 -30 19 1 29 -4 34 -18 6 -15 4 -15 -11 -3 -16 12 -17 12 -6 -2 7 -9 10
-19 6 -23 -4 -4 0 -4 10 0 12 4 17 1 17 -11 0 -10 5 -13 12 -9 8 5 9 0 6 -14
-4 -12 -1 -25 4 -29 7 -3 8 -1 4 5 -4 7 -3 12 1 12 11 0 36 -40 29 -47 -2 -3
7 -16 22 -30 15 -14 18 -19 7 -12 -19 14 -19 14 0 -12 11 -15 23 -25 26 -23 4
2 12 -3 19 -11 11 -13 10 -14 -6 -8 -16 6 -17 4 -7 -9 7 -8 9 -19 5 -24 -4 -4
2 -2 13 6 11 8 16 10 12 5 -4 -5 3 -15 15 -23 13 -7 16 -11 7 -9 -9 3 -16 -1
-16 -8 0 -7 6 -11 14 -8 8 3 13 -3 13 -17 0 -13 4 -19 12 -14 7 5 9 0 6 -14
-3 -12 -3 -21 1 -20 19 2 31 -3 26 -12 -3 -6 -1 -10 5 -10 6 0 8 -5 5 -10 -3
-5 1 -10 10 -10 9 0 13 -5 10 -10 -4 -6 -12 -7 -18 -3 -7 4 -6 -1 2 -11 8 -9
20 -15 27 -12 8 3 11 -6 10 -29 -1 -18 1 -33 4 -33 20 2 30 -4 25 -12 -3 -5
-1 -10 5 -10 6 0 9 -4 6 -9 -3 -4 3 -18 13 -30 11 -13 18 -32 16 -43 -4 -17
-2 -18 12 -6 12 9 15 9 9 1 -4 -8 -2 -13 6 -13 9 0 9 -3 -2 -10 -10 -6 -11
-10 -2 -10 6 0 12 -5 12 -11 0 -5 -5 -7 -11 -3 -6 3 -3 -5 6 -20 9 -14 21 -23
26 -20 15 9 10 -3 -7 -21 -15 -14 -14 -15 8 -11 16 3 25 -1 25 -10 0 -7 -4
-11 -9 -8 -4 3 -8 1 -8 -5 0 -5 8 -11 17 -13 15 -3 15 -4 0 -19 -9 -9 -13 -20
-9 -24 4 -5 -2 -5 -12 -1 -17 6 -17 5 -5 -11 9 -11 10 -14 2 -9 -8 4 -13 2
-13 -4 0 -6 -5 -8 -12 -4 -9 5 -8 2 1 -9 12 -15 12 -17 -4 -10 -15 5 -17 3
-12 -11 4 -10 3 -15 -3 -11 -6 3 -10 1 -10 -5 0 -6 -12 -23 -27 -37 -16 -15
-21 -22 -13 -18 12 7 12 4 -2 -15 -9 -14 -21 -24 -26 -23 -6 1 -16 -5 -24 -14
-7 -9 -8 -14 -2 -10 7 4 14 1 17 -7 4 -10 -1 -13 -18 -11 -21 2 -23 0 -14 -18
8 -14 8 -18 0 -13 -6 4 -11 2 -11 -4 0 -6 -4 -8 -10 -5 -5 3 -7 0 -4 -8 3 -8
0 -18 -5 -22 -6 -3 -9 -11 -6 -16 3 -5 0 -6 -8 -3 -10 3 -16 -5 -21 -26 -3
-17 -10 -29 -16 -25 -5 3 -11 1 -11 -4 -1 -6 -2 -15 -3 -20 0 -5 -5 -13 -10
-18 -5 -4 -6 -3 -2 4 3 6 2 14 -3 17 -5 4 -8 -5 -6 -19 1 -14 0 -24 -2 -21 -5
5 -43 -30 -43 -40 0 -3 6 -2 13 2 9 6 9 5 0 -8 -7 -8 -10 -17 -8 -20 3 -3 -6
-4 -20 -2 -22 2 -24 0 -14 -12 9 -11 9 -14 -1 -14 -7 0 -10 -6 -7 -14 4 -10 0
-14 -14 -11 -16 3 -17 1 -9 -15 9 -17 8 -19 -7 -13 -16 6 -16 5 -4 -10 12 -15
12 -17 -2 -12 -8 4 -18 1 -23 -6 -4 -8 -3 -10 4 -5 8 5 10 2 6 -9 -4 -10 -10
-12 -18 -6 -8 7 -12 4 -12 -9 0 -10 5 -16 10 -13 5 4 6 1 2 -6 -5 -7 -14 -10
-21 -7 -9 3 -12 -2 -10 -14 2 -10 -3 -21 -11 -24 -8 -3 -14 -12 -14 -20 0 -8
-5 -18 -12 -22 -7 -5 -8 -3 -3 6 5 9 4 11 -4 6 -9 -6 -9 -11 1 -24 11 -13 11
-14 -1 -7 -11 6 -13 4 -8 -9 4 -9 3 -15 -2 -12 -5 3 -16 -10 -25 -29 -9 -19
-19 -35 -22 -35 -3 0 -2 5 1 10 14 23 -4 8 -20 -16 -9 -15 -12 -23 -6 -20 6 4
11 2 11 -3 0 -6 -5 -11 -11 -11 -5 0 -8 -4 -4 -9 3 -6 -4 -8 -16 -6 -12 2 -19
2 -16 -2 4 -3 2 -15 -4 -27 -10 -20 -10 -20 5 -2 9 11 16 15 16 9 0 -16 -28
-36 -39 -28 -7 4 -8 0 -4 -11 4 -11 -2 -23 -18 -36 -19 -16 -20 -19 -5 -14 15
5 14 1 -7 -20 -15 -15 -27 -33 -27 -40 0 -8 -5 -13 -12 -12 -7 2 -13 -4 -14
-12 0 -8 -5 -26 -9 -38 -6 -18 -10 -20 -16 -10 -6 9 -9 6 -9 -10 0 -16 -4 -21
-12 -16 -7 4 -10 4 -6 -1 4 -4 2 -17 -4 -29 -7 -11 -11 -25 -10 -30 2 -5 -3
-6 -11 -3 -7 3 -14 -1 -14 -9 0 -7 5 -11 11 -8 6 3 0 -4 -14 -16 -14 -12 -18
-19 -10 -15 8 4 4 -3 -10 -15 -14 -12 -19 -19 -11 -15 9 5 8 -1 -4 -19 -10
-14 -22 -26 -27 -26 -6 0 -8 -9 -5 -20 3 -11 2 -18 -3 -15 -10 6 -22 -24 -14
-36 3 -5 -2 -9 -11 -9 -11 0 -15 -5 -11 -15 4 -13 -24 -39 -35 -32 -2 1 2 -4
10 -10 13 -11 13 -13 -1 -13 -9 0 -20 -5 -24 -12 -4 -6 -3 -8 3 -5 5 3 10 0
10 -7 0 -8 -7 -12 -14 -9 -8 3 -13 0 -11 -8 2 -8 -3 -13 -10 -11 -6 1 -12 -5
-12 -14 0 -9 5 -12 12 -8 7 4 2 -5 -12 -18 -14 -14 -29 -23 -34 -20 -5 3 -6 0
-2 -7 6 -9 12 -9 24 1 14 11 14 9 -1 -8 -9 -11 -14 -24 -10 -29 5 -4 2 -5 -4
-1 -7 4 -13 2 -13 -4 0 -6 -4 -9 -9 -5 -5 3 -13 0 -17 -6 -4 -7 -3 -9 4 -5 6
3 13 2 17 -4 6 -9 -8 -15 -29 -11 -5 1 -4 -5 4 -13 8 -10 9 -16 2 -16 -6 0 -9
-6 -6 -14 3 -7 -2 -16 -10 -19 -11 -4 -13 -1 -10 11 5 14 4 14 -4 2 -6 -8 -9
-17 -6 -21 2 -4 0 -10 -6 -14 -7 -4 -6 -14 2 -28 10 -20 10 -21 -6 -8 -14 12
-16 12 -10 -4 5 -12 4 -16 -4 -11 -6 3 -13 2 -17 -4 -3 -5 -1 -10 5 -10 6 0 8
-5 5 -10 -4 -6 -12 -7 -18 -3 -7 4 -6 -1 2 -10 8 -10 11 -20 7 -24 -3 -3 -6 0
-6 7 0 9 -6 8 -20 -5 -11 -10 -17 -22 -13 -28 3 -5 -3 -17 -13 -25 -18 -13
-18 -14 6 -7 22 7 23 6 8 -9 -10 -9 -21 -15 -26 -14 -8 3 -14 -5 -11 -14 8
-28 3 -42 -21 -60 -25 -18 -27 -24 -19 -46 8 -21 7 -23 -5 -13 -9 7 -17 8 -20
2 -3 -5 0 -12 6 -14 9 -4 8 -6 -3 -6 -14 -1 -16 -26 -18 -201 l-2 -200 5120 0
5121 0 -1 2733 c0 1533 -4 2723 -9 2712 -5 -11 -9 -14 -9 -6 -1 8 -8 11 -21 8
-11 -3 -23 -1 -26 4 -3 5 -10 9 -15 9 -6 0 -8 -4 -5 -8 6 -10 -30 -9 -40 0 -3
4 -13 4 -22 1 -11 -5 -13 -3 -7 8 7 11 6 12 -6 2 -8 -6 -36 -11 -61 -9 -31 2
-45 -1 -41 -8 4 -6 -1 -5 -10 3 -14 11 -17 11 -17 0 0 -11 -2 -11 -10 1 -6 10
-10 11 -10 3 0 -9 -10 -11 -32 -6 -22 4 -29 3 -24 -5 5 -8 1 -10 -10 -5 -10 4
-15 2 -11 -4 3 -5 0 -10 -8 -10 -8 0 -12 4 -10 8 3 4 -3 6 -12 4 -10 -2 -24
-4 -31 -4 -7 -1 -10 -5 -7 -11 3 -5 1 -10 -4 -10 -6 0 -11 5 -11 12 0 9 -3 9
-11 1 -6 -6 -18 -9 -27 -6 -10 4 -13 2 -8 -5 5 -9 0 -9 -20 -2 -15 6 -29 8
-32 5 -3 -3 1 -5 9 -5 12 0 12 -2 -1 -10 -9 -6 -17 -5 -22 3 -6 9 -8 8 -8 -2
0 -8 -6 -11 -16 -7 -8 3 -12 2 -9 -3 3 -5 1 -12 -5 -16 -5 -3 -10 -1 -10 5 0
6 -5 8 -10 5 -6 -4 -8 -10 -6 -14 3 -4 -1 -8 -9 -8 -8 0 -12 4 -9 9 3 4 -2 8
-11 8 -10 0 -13 -5 -9 -12 5 -8 2 -9 -10 -5 -12 5 -19 0 -26 -16 -5 -12 -9
-17 -9 -11 -1 7 -12 11 -25 10 -16 -1 -22 -6 -18 -15 3 -9 1 -12 -6 -7 -7 4
-23 -5 -37 -20 -14 -16 -23 -20 -19 -11 3 10 1 17 -5 17 -6 0 -11 -7 -11 -15
0 -8 -5 -15 -11 -15 -7 0 -18 -8 -26 -17 -8 -10 -11 -12 -7 -4 4 9 2 12 -7 9
-8 -3 -13 -11 -11 -18 2 -7 -3 -10 -12 -7 -19 7 -31 -9 -14 -17 7 -4 3 -4 -9
-2 -15 3 -23 -1 -23 -9 0 -8 -5 -17 -12 -21 -7 -5 -8 -3 -3 6 6 9 4 11 -4 6
-7 -5 -10 -14 -8 -21 4 -8 -3 -11 -18 -9 -18 1 -22 -2 -18 -14 5 -11 2 -14
-10 -9 -12 4 -14 2 -10 -10 4 -11 2 -14 -5 -9 -8 4 -12 0 -12 -11 0 -15 -2
-16 -10 -3 -8 13 -10 12 -10 -3 0 -10 -7 -20 -16 -24 -8 -3 -13 -12 -10 -19 3
-9 0 -11 -11 -7 -12 5 -14 3 -8 -7 6 -10 4 -12 -8 -7 -13 5 -47 -20 -39 -30 7
-11 0 -23 -15 -23 -15 0 -16 -2 -3 -10 13 -8 12 -10 -2 -10 -10 0 -18 -5 -18
-11 0 -5 -6 -7 -12 -3 -8 5 -7 0 2 -11 14 -17 13 -18 -2 -12 -12 4 -15 2 -11
-9 3 -10 0 -12 -10 -8 -12 4 -15 -1 -13 -19 3 -21 -1 -24 -21 -22 -17 2 -21
-1 -14 -8 6 -6 11 -15 11 -21 0 -5 -3 -6 -6 -3 -9 9 -47 -41 -40 -52 4 -5 -3
-13 -15 -16 -17 -6 -19 -9 -8 -16 11 -7 10 -9 -4 -9 -10 0 -15 -4 -12 -10 3
-6 1 -10 -4 -10 -6 0 -11 -5 -11 -11 0 -5 5 -7 12 -3 7 5 8 3 4 -5 -5 -7 -11
-10 -14 -7 -9 10 -41 -25 -35 -39 2 -8 -1 -22 -7 -32 -11 -17 -11 -17 -6 0 3
11 2 15 -4 12 -6 -3 -10 -19 -10 -35 0 -16 -7 -35 -15 -44 -8 -8 -15 -19 -15
-25 0 -5 -5 -13 -12 -17 -8 -5 -9 -1 -4 12 6 15 5 16 -5 7 -10 -10 -9 -15 1
-28 10 -12 10 -15 -4 -15 -10 0 -15 -4 -11 -9 3 -5 0 -13 -6 -16 -5 -4 -8 -14
-5 -22 4 -9 2 -11 -6 -7 -8 5 -9 2 -5 -9 5 -12 1 -17 -13 -17 -11 0 -20 -4
-20 -10 0 -5 5 -10 11 -10 5 0 7 -5 4 -11 -4 -6 -13 -8 -21 -5 -8 3 -11 0 -7
-9 3 -8 10 -12 15 -9 6 4 0 -7 -13 -25 -12 -17 -26 -31 -31 -31 -4 0 -8 -5 -8
-11 0 -5 4 -7 10 -4 6 3 7 -1 4 -9 -3 -9 -9 -15 -12 -14 -4 0 -14 0 -22 -1
-12 -1 -13 -3 -1 -10 7 -5 10 -14 7 -20 -4 -6 -12 -8 -18 -5 -6 4 -5 -3 2 -16
10 -18 9 -21 -1 -15 -9 6 -11 4 -6 -7 4 -11 -2 -18 -16 -22 -18 -5 -20 -8 -7
-16 13 -9 13 -10 0 -11 -8 -1 -17 -1 -20 -1 -3 0 -6 -8 -6 -18 0 -10 4 -16 8
-14 4 3 8 0 8 -5 0 -6 -7 -11 -16 -11 -11 0 -14 -6 -8 -22 6 -20 5 -21 -9 -10
-12 10 -17 10 -23 1 -4 -8 -3 -9 4 -5 7 4 12 3 12 -2 0 -15 -26 -62 -31 -57
-3 2 -5 -5 -6 -16 -1 -12 3 -17 9 -13 7 4 8 2 4 -5 -4 -7 -17 -9 -29 -6 -12 4
-17 3 -12 -2 17 -14 16 -33 -2 -33 -15 0 -16 -2 -3 -10 10 -6 11 -10 3 -10 -7
0 -13 -9 -13 -20 0 -11 -3 -20 -7 -20 -5 0 -13 -11 -19 -25 -9 -18 -9 -25 0
-29 7 -3 6 -5 -2 -5 -8 -1 -10 -6 -6 -13 5 -8 2 -8 -10 1 -9 8 -16 10 -14 5 1
-5 -1 -24 -5 -41 -4 -22 -11 -31 -20 -27 -8 3 -14 -2 -14 -10 0 -8 4 -13 9
-10 4 3 8 0 8 -5 0 -6 -10 -11 -22 -11 -17 0 -19 -3 -10 -9 18 -11 17 -17 -7
-48 -12 -14 -18 -29 -15 -34 3 -5 -1 -6 -9 -3 -8 3 -18 0 -23 -7 -4 -8 -3 -10
4 -5 19 11 14 -5 -5 -20 -12 -9 -14 -13 -5 -14 7 0 10 -5 7 -10 -4 -6 -10 -8
-15 -5 -11 7 -22 -24 -13 -37 3 -7 1 -8 -5 -4 -19 12 -35 -3 -21 -20 9 -11 8
-14 -6 -14 -14 0 -15 -3 -5 -15 10 -12 8 -14 -9 -10 -15 3 -18 0 -14 -12 5
-12 3 -14 -8 -8 -12 7 -12 6 -1 -7 10 -12 10 -17 -1 -27 -8 -6 -16 -8 -20 -5
-7 8 -20 -34 -13 -45 3 -5 -2 -8 -12 -7 -12 1 -17 -6 -16 -21 0 -17 -2 -20
-12 -12 -10 8 -12 6 -9 -10 3 -16 -1 -21 -18 -22 -21 0 -21 -1 -2 -9 18 -8 18
-9 2 -9 -10 -1 -20 -8 -23 -16 -4 -8 -11 -12 -16 -9 -6 4 -6 -1 1 -14 8 -15 7
-23 -8 -36 -9 -9 -23 -16 -29 -16 -6 0 -14 -5 -18 -12 -4 -6 -3 -8 4 -4 6 3
14 1 18 -5 4 -7 3 -9 -3 -6 -6 4 -19 -1 -29 -9 -10 -9 -12 -13 -4 -9 8 4 4 -2
-9 -13 -13 -10 -21 -24 -17 -31 5 -7 1 -9 -9 -5 -9 4 -15 2 -13 -4 2 -5 0 -10
-5 -11 -4 0 -14 -6 -21 -13 -10 -10 -11 -15 -2 -20 7 -5 5 -8 -6 -8 -10 0 -18
-5 -18 -11 0 -5 -6 -7 -12 -3 -8 5 -7 0 2 -11 10 -12 10 -16 2 -11 -16 10 -42
-11 -42 -34 0 -10 -8 -24 -17 -31 -15 -11 -16 -11 -5 1 6 8 12 19 12 24 0 6
-7 0 -16 -12 -8 -12 -12 -28 -8 -35 6 -9 5 -9 -8 0 -17 14 -29 8 -22 -12 5
-11 -28 -29 -48 -26 -4 0 -5 -6 -2 -13 3 -9 -3 -17 -15 -21 -12 -3 -21 -11
-21 -16 0 -6 -6 -7 -12 -3 -10 6 -10 4 0 -8 10 -13 9 -15 -8 -14 -11 0 -20 -2
-20 -6 0 -18 -35 -44 -43 -34 -5 7 -7 2 -4 -11 3 -15 1 -20 -9 -16 -8 3 -14 0
-14 -6 0 -6 -11 -16 -25 -21 -14 -5 -25 -14 -25 -19 0 -6 -8 -7 -17 -4 -13 5
-15 2 -10 -12 6 -15 5 -16 -8 -5 -13 11 -16 11 -13 -1 2 -7 -6 -15 -18 -17
-12 -2 -30 -13 -40 -25 -19 -22 -19 -22 2 -5 11 10 24 18 28 18 5 0 -2 -9 -15
-19 -18 -14 -27 -16 -37 -8 -10 8 -12 7 -10 -3 2 -8 -6 -16 -17 -18 -11 -2
-24 -8 -30 -14 -6 -6 -3 -7 10 -3 15 5 17 4 6 -3 -8 -6 -22 -9 -32 -7 -10 2
-22 -1 -25 -7 -5 -7 -2 -8 7 -3 8 5 6 -1 -5 -13 -15 -17 -22 -19 -38 -11 -16
9 -19 8 -13 -2 6 -9 3 -10 -10 -5 -15 5 -16 4 -6 -8 10 -12 8 -14 -14 -12 -14
2 -28 -1 -31 -6 -3 -4 -10 -5 -16 -2 -7 4 -8 2 -4 -4 4 -7 2 -12 -4 -12 -6 0
-8 -5 -4 -11 4 -8 0 -8 -15 0 -17 9 -21 9 -19 -1 2 -7 -3 -12 -11 -10 -7 1
-19 -2 -25 -8 -7 -5 -16 -6 -20 -2 -4 4 -7 3 -6 -3 5 -21 -1 -27 -14 -16 -11
9 -16 9 -22 0 -5 -8 -3 -9 6 -4 9 5 11 4 6 -4 -4 -6 -13 -11 -19 -10 -25 3
-38 -1 -32 -11 3 -5 2 -10 -4 -10 -5 0 -12 6 -14 13 -4 9 -6 9 -6 -1 -1 -7 -5
-10 -11 -7 -6 4 -7 -1 -3 -11 4 -12 2 -15 -8 -12 -8 3 -13 12 -11 19 1 9 -3 8
-11 -3 -16 -20 -32 -24 -21 -5 6 9 5 9 -8 0 -8 -7 -18 -9 -23 -5 -4 4 -3 -3 4
-15 8 -16 8 -24 -1 -29 -6 -4 -8 -3 -4 4 3 6 2 13 -3 16 -5 4 -12 2 -15 -3 -4
-5 -14 -8 -24 -7 -9 2 -20 -2 -24 -8 -5 -7 -8 -6 -8 4 -1 9 -6 5 -16 -10 -14
-24 -15 -24 -9 -2 7 23 6 23 -14 6 -15 -13 -17 -20 -8 -26 18 -11 -1 -10 -24
2 -15 9 -19 7 -19 -7 0 -15 -2 -16 -10 -3 -7 12 -12 12 -22 2 -6 -6 -23 -12
-38 -12 -20 0 -22 -2 -10 -11 12 -9 11 -10 -7 -6 -17 4 -23 1 -23 -11 0 -13
-2 -14 -9 -4 -12 20 -21 19 -32 0 -5 -10 -19 -22 -29 -28 -16 -9 -19 -8 -14 7
5 16 4 16 -8 3 -7 -9 -21 -14 -30 -12 -10 2 -18 -2 -18 -8 0 -6 5 -8 12 -4 6
4 8 3 4 -4 -3 -6 -15 -9 -26 -7 -11 2 -23 -1 -26 -7 -5 -7 -2 -8 6 -3 9 5 11
4 6 -4 -6 -9 -11 -9 -21 -1 -10 8 -15 8 -21 -1 -5 -8 -3 -9 6 -4 9 6 11 4 6
-4 -5 -7 -15 -10 -23 -7 -11 4 -13 2 -9 -9 3 -8 1 -15 -4 -15 -6 0 -10 6 -11
13 0 6 -4 3 -9 -8 -5 -11 -9 -14 -9 -7 -1 6 -6 12 -12 12 -5 0 -7 -4 -4 -10 3
-5 -1 -10 -9 -10 -9 0 -16 -5 -16 -11 0 -5 5 -7 12 -3 6 4 8 3 5 -4 -4 -5 -15
-9 -25 -8 -9 2 -27 -8 -40 -21 -20 -21 -25 -23 -39 -11 -12 9 -15 9 -9 1 4 -8
1 -13 -9 -13 -9 0 -13 -4 -10 -10 6 -9 -16 -15 -39 -11 -5 1 -6 -6 -2 -15 5
-14 4 -15 -9 -4 -13 11 -14 10 -10 -2 3 -8 -1 -21 -10 -28 -9 -7 -15 -8 -15
-2 0 6 6 13 13 15 9 4 9 6 0 6 -7 1 -17 -8 -23 -20 -7 -11 -25 -25 -41 -31
-18 -6 -26 -14 -22 -21 4 -7 -2 -5 -12 3 -10 8 -16 10 -12 4 4 -7 0 -15 -9
-18 -9 -3 -12 -11 -8 -18 5 -8 1 -8 -12 2 -10 8 -16 10 -12 6 4 -5 0 -15 -10
-23 -9 -8 -11 -11 -3 -7 9 5 12 3 7 -5 -4 -6 -11 -9 -16 -6 -13 8 -50 -13 -50
-29 0 -7 -6 -13 -13 -13 -20 0 -77 -45 -77 -60 0 -8 -4 -12 -9 -9 -5 3 -11 -1
-15 -9 -3 -8 -13 -15 -21 -15 -9 0 -14 -4 -11 -9 5 -8 -29 -24 -46 -22 -4 0
-5 -5 -2 -13 3 -8 -4 -16 -16 -19 -12 -3 -19 -10 -16 -16 4 -5 1 -13 -5 -17
-7 -4 -9 -3 -6 3 4 6 1 13 -7 16 -16 6 -26 -1 -26 -17 0 -6 5 -4 10 4 5 8 10
10 10 4 0 -18 -28 -37 -41 -28 -8 4 -9 3 -5 -5 9 -14 -12 -43 -25 -35 -5 3 -9
0 -9 -5 0 -6 -6 -10 -12 -9 -7 2 -12 -3 -10 -11 2 -8 -3 -11 -12 -8 -9 4 -18
1 -22 -5 -4 -7 -3 -8 4 -4 8 5 10 2 6 -9 -5 -13 -9 -13 -22 -3 -12 10 -14 10
-8 1 4 -8 2 -13 -7 -13 -8 0 -21 -8 -28 -17 -11 -15 -11 -16 1 -6 8 7 18 13
24 13 18 0 -29 -29 -47 -30 -10 0 -16 -4 -13 -8 2 -4 1 -14 -5 -22 -7 -13 -9
-13 -9 0 -1 13 -2 13 -13 -1 -7 -8 -20 -18 -30 -22 -10 -4 -15 -12 -12 -17 4
-6 1 -9 -7 -8 -7 2 -12 -5 -12 -14 1 -14 -2 -15 -17 -8 -12 7 -20 6 -25 -2 -5
-7 -3 -8 6 -3 9 6 11 4 6 -4 -5 -7 -14 -10 -22 -7 -8 3 -11 0 -8 -9 4 -9 -1
-12 -13 -11 -27 5 -46 -13 -32 -31 10 -11 9 -12 -5 -7 -9 3 -16 2 -16 -4 0 -5
-7 -13 -16 -16 -15 -6 -15 -4 -3 11 13 16 12 17 -4 4 -10 -8 -16 -20 -13 -27
3 -9 0 -11 -11 -7 -11 5 -14 3 -8 -6 6 -10 3 -11 -14 -2 -18 10 -20 9 -14 -5
4 -11 3 -15 -5 -10 -6 3 -14 -3 -18 -16 -7 -22 -7 -22 -15 -3 -6 15 -8 16 -8
4 -1 -9 -9 -23 -19 -30 -15 -12 -16 -12 -7 1 6 9 3 8 -7 -2 -12 -13 -18 -15
-21 -6 -4 10 -6 10 -6 0 -1 -7 -5 -11 -10 -7 -5 3 -13 0 -17 -6 -4 -8 -3 -9 4
-5 7 4 12 2 12 -3 0 -6 -7 -11 -16 -11 -8 0 -12 -4 -9 -10 4 -6 -1 -7 -11 -3
-13 5 -15 3 -10 -8 4 -8 1 -6 -7 4 -14 17 -15 17 -22 0 -5 -10 -7 -21 -7 -26
1 -4 -9 -5 -22 -3 -20 4 -24 1 -19 -12 6 -14 4 -15 -9 -5 -12 11 -18 10 -32
-5 -9 -10 -13 -23 -9 -27 5 -5 1 -4 -9 3 -12 10 -18 10 -23 1 -6 -8 -10 -7
-17 2 -6 10 -7 7 -3 -8 4 -14 2 -23 -4 -23 -6 0 -11 6 -11 12 0 7 -7 3 -15 -9
-10 -14 -21 -20 -32 -16 -12 5 -14 3 -8 -8 4 -8 5 -11 0 -7 -4 4 -15 2 -23 -5
-9 -6 -13 -7 -9 -1 3 6 0 11 -7 11 -8 0 -12 -7 -9 -15 5 -12 2 -12 -17 -2 -12
7 -20 7 -16 2 3 -6 2 -13 -4 -17 -5 -3 -10 -1 -10 5 0 6 -5 8 -10 5 -6 -4 -8
-11 -5 -16 3 -5 -2 -6 -11 -2 -13 5 -15 3 -9 -8 7 -12 6 -12 -7 -1 -13 10 -18
10 -24 1 -5 -8 -3 -9 6 -4 9 5 11 4 6 -3 -5 -9 -13 -9 -27 -2 -17 10 -23 6
-20 -12 0 -4 -5 -5 -13 -2 -8 3 -17 0 -21 -5 -3 -6 -10 -9 -15 -6 -5 3 -11 1
-15 -5 -8 -13 -25 -13 -25 1 0 5 4 8 9 4 5 -3 12 -1 16 5 4 6 10 8 15 5 4 -3
14 3 21 13 13 15 12 16 -3 3 -10 -7 -18 -10 -18 -6 0 4 -7 2 -15 -5 -8 -7 -15
-9 -15 -4 0 5 -7 0 -15 -10 -11 -14 -15 -16 -15 -5 0 9 -3 10 -8 3 -12 -18
-42 -25 -62 -14 -13 7 -21 7 -26 -2 -5 -7 -3 -8 6 -3 8 5 11 4 6 -3 -3 -6 -18
-9 -32 -6 -19 3 -24 1 -18 -8 4 -7 -2 -5 -14 5 -20 19 -21 18 -15 -5 3 -17 2
-19 -5 -9 -14 20 -51 24 -58 6 -4 -8 -10 -12 -15 -9 -5 3 -7 11 -3 17 3 7 -2
3 -10 -7 -9 -11 -16 -14 -16 -7 0 7 -5 9 -10 6 -6 -4 -8 -12 -4 -18 3 -7 -2
-3 -10 7 -12 15 -16 16 -16 5 0 -12 -2 -12 -10 1 -6 10 -10 11 -10 3 0 -7 -5
-13 -11 -13 -5 0 -8 4 -5 8 3 5 -1 9 -9 9 -8 0 -12 -4 -9 -9 3 -4 -2 -8 -11
-8 -10 0 -13 5 -9 12 6 10 4 10 -8 0 -13 -10 -17 -10 -21 0 -4 8 -6 7 -6 -4
-1 -10 -6 -18 -12 -18 -5 0 -7 5 -3 12 5 8 2 9 -11 4 -11 -4 -22 -2 -27 6 -6
11 -8 10 -8 0 0 -8 -5 -10 -12 -5 -19 11 -39 13 -32 2 3 -5 0 -9 -5 -9 -6 0
-11 6 -11 13 0 8 -4 7 -10 -3 -5 -8 -10 -10 -10 -4 0 7 -7 15 -16 18 -14 6
-15 4 -4 -9 11 -13 11 -16 -1 -13 -8 2 -20 10 -27 18 -12 13 -13 13 -9 -2 6
-17 -16 -19 -30 -3 -4 4 -2 5 6 0 10 -6 12 -4 6 5 -6 10 -11 9 -23 -6 -13 -17
-14 -17 -8 -1 5 15 2 17 -15 12 -16 -5 -19 -4 -14 5 6 9 4 11 -6 5 -23 -15
-50 -13 -45 2 4 10 1 11 -14 3 -15 -8 -21 -6 -29 7 -10 17 -10 17 -11 0 0 -11
-5 -17 -12 -14 -7 2 -12 11 -12 20 1 9 -4 13 -12 10 -8 -3 -12 -9 -9 -13 3 -5
-15 2 -39 16 -32 18 -46 22 -52 13 -4 -8 -3 -9 4 -5 7 4 12 2 12 -3 0 -16 -11
-13 -33 6 -11 10 -17 12 -13 6 4 -7 3 -13 -2 -13 -6 0 -12 7 -16 15 -6 17 -26
20 -26 4 0 -5 5 -7 12 -3 7 5 8 3 3 -6 -6 -10 -11 -9 -21 5 -7 10 -11 21 -9
25 2 4 -3 7 -11 7 -10 0 -11 -4 -4 -11 5 -5 10 -14 10 -20 0 -5 -8 0 -18 12
-13 15 -22 18 -29 11 -8 -8 -13 -7 -18 2 -6 8 -4 10 5 4 9 -5 11 -4 6 3 -4 8
-15 8 -31 2 -23 -9 -29 -6 -26 12 0 5 -8 8 -19 8 -11 0 -20 5 -20 11 0 8 -4 8
-14 0 -10 -8 -16 -9 -21 -1 -3 6 -11 7 -17 4 -7 -4 -8 -2 -4 5 6 9 12 9 24 -1
14 -10 15 -10 5 2 -16 17 -57 25 -47 8 4 -7 3 -8 -5 -4 -8 5 -9 12 -2 20 7 8
5 12 -9 12 -10 0 -16 -4 -13 -9 3 -5 -6 -1 -20 8 -14 9 -28 16 -31 16 -15 -1
-35 12 -30 20 3 5 0 9 -5 9 -6 0 -11 -5 -11 -11 0 -5 -5 -7 -10 -4 -6 4 -8 10
-5 15 3 5 0 12 -6 16 -8 4 -9 3 -5 -4 4 -7 2 -12 -3 -12 -6 0 -11 10 -12 23 0
20 -1 20 -8 3 -7 -18 -8 -18 -14 -2 -6 16 -10 16 -24 5 -14 -12 -15 -11 -8 9
6 22 5 23 -14 13 -17 -10 -20 -9 -15 4 5 11 2 14 -12 8 -12 -5 -15 -3 -9 6 6
10 2 11 -15 6 -14 -4 -20 -3 -16 3 3 5 -6 17 -19 26 -14 10 -23 22 -19 28 4 7
3 8 -4 4 -6 -4 -9 -14 -6 -24 3 -9 -1 -6 -9 7 -11 18 -16 21 -21 10 -3 -8 -4
-4 -2 9 4 19 2 21 -10 11 -11 -9 -14 -9 -14 0 0 7 -5 9 -12 5 -7 -5 -9 -2 -5
9 4 11 2 14 -7 11 -8 -3 -17 0 -22 7 -4 7 -3 10 4 5 6 -3 13 -2 16 3 7 11 -13
9 -31 -2 -9 -6 -11 -3 -6 9 4 12 3 15 -5 10 -7 -4 -12 -2 -12 3 0 6 -10 11
-22 11 -19 0 -20 2 -8 10 12 8 10 10 -9 10 -13 0 -21 3 -18 6 10 10 -42 47
-57 41 -20 -8 -28 4 -15 20 9 10 7 13 -10 13 -12 0 -19 4 -16 10 6 10 -8 14
-34 10 -12 -1 -13 1 -2 13 8 10 9 17 1 22 -5 3 -10 1 -10 -5 0 -6 -4 -9 -10
-5 -5 3 -7 12 -4 20 4 10 0 13 -15 10 -14 -2 -18 1 -14 11 6 17 -13 19 -21 2
-3 -7 -3 -3 0 10 4 16 1 22 -11 22 -10 0 -14 5 -9 13 6 10 4 10 -7 0 -7 -7
-18 -13 -24 -13 -5 0 -3 5 5 10 13 9 13 11 0 19 -8 5 -18 7 -22 5 -4 -3 -5 1
-3 8 3 8 -10 27 -30 43 -19 17 -35 36 -35 42 0 12 -13 17 -33 14 -4 0 -7 6 -7
15 0 9 -5 12 -13 8 -7 -5 -6 0 3 11 14 17 13 18 -2 12 -10 -3 -22 1 -30 11
-11 13 -11 15 2 8 9 -4 8 -2 -2 7 -10 8 -15 17 -11 20 3 4 -3 7 -14 7 -17 0
-20 5 -15 23 5 20 4 21 -13 7 -11 -9 -16 -10 -11 -2 4 7 2 12 -5 12 -6 0 -9 8
-6 19 3 14 1 18 -9 14 -8 -3 -14 1 -14 11 0 9 -7 16 -16 16 -8 0 -12 5 -9 10
3 6 1 10 -6 10 -6 0 -9 8 -6 20 3 10 2 19 -2 18 -22 -2 -32 4 -27 17 3 8 2 14
-2 14 -4 -1 -16 -1 -27 1 l-20 1 20 9 c14 6 16 9 5 10 -8 2 -19 2 -25 0 -5 -1
-4 4 3 11 10 11 8 16 -10 26 -15 8 -18 12 -8 13 13 0 13 1 0 10 -8 5 -15 15
-15 22 0 7 -8 12 -17 10 -12 -2 -16 3 -14 15 2 10 -6 27 -17 38 -11 11 -16 14
-12 6 6 -10 4 -12 -4 -6 -9 5 -10 10 -2 18 8 8 2 16 -21 30 -18 10 -25 16 -16
13 12 -3 15 -1 11 9 -3 8 -9 12 -14 9 -5 -3 -9 2 -9 11 0 9 -5 13 -11 9 -8 -5
-8 -1 0 14 8 16 7 19 -6 18 -9 0 -18 5 -21 13 -3 9 0 11 9 7 8 -4 4 1 -8 10
-13 9 -23 23 -23 30 0 8 -5 14 -10 14 -12 0 -9 22 5 32 6 5 6 8 -2 8 -6 0 -15
-5 -18 -10 -10 -17 -24 -2 -18 20 3 11 0 20 -6 20 -6 0 -11 7 -11 15 0 8 -4
15 -9 15 -5 0 -12 7 -15 16 -3 8 -2 12 4 9 6 -3 7 1 4 9 -3 9 -10 16 -15 16
-5 0 -9 5 -9 11 0 5 6 7 13 4 6 -4 3 0 -7 9 -10 8 -23 13 -28 9 -6 -3 -5 4 1
16 10 18 9 21 -6 21 -13 0 -14 3 -6 8 9 6 7 12 -7 22 -11 8 -20 22 -20 32 0
10 -4 18 -9 18 -5 0 -8 8 -7 18 4 22 -15 63 -25 56 -5 -3 -4 7 1 21 5 14 7 24
2 21 -4 -2 -15 2 -25 9 -12 9 -15 15 -7 20 8 5 8 10 0 20 -7 8 -8 20 -4 27 6
10 5 11 -7 1 -12 -10 -17 -8 -27 7 -8 13 -8 21 -1 25 7 5 7 11 0 19 -6 7 -8
15 -5 19 3 3 -4 3 -15 0 -17 -4 -20 -2 -15 11 3 9 2 22 -4 29 -6 6 -10 15 -9
19 1 3 -2 10 -7 15 -5 4 -7 3 -3 -3 3 -6 0 -11 -7 -11 -8 0 -11 9 -8 23 3 15
-3 26 -18 34 -15 8 -20 18 -17 31 3 10 0 22 -5 26 -7 3 -8 1 -4 -5 4 -7 2 -12
-3 -12 -6 0 -11 9 -11 21 0 13 -4 18 -13 13 -7 -5 -6 0 3 11 9 11 10 16 3 11
-8 -4 -13 -1 -13 8 0 9 -8 16 -18 16 -12 0 -18 9 -20 27 -1 14 -11 33 -23 41
-11 8 -18 20 -15 28 3 8 0 11 -10 7 -9 -3 -14 0 -12 8 2 8 -3 13 -11 11 -12
-3 -12 0 -1 13 11 13 10 14 -5 9 -13 -5 -16 -4 -11 4 4 7 2 12 -4 12 -6 0 -8
4 -5 10 3 5 -2 10 -12 10 -15 0 -16 2 -3 10 8 5 10 10 4 10 -7 0 -14 9 -17 20
-3 11 -13 20 -24 20 -15 0 -16 2 -3 10 11 7 11 10 2 10 -7 0 -10 4 -7 10 3 6
-1 7 -10 4 -11 -4 -14 -2 -10 9 4 9 -1 16 -14 20 -14 3 -19 10 -15 21 3 9 11
13 17 9 6 -3 7 -1 3 5 -4 6 -13 9 -21 5 -10 -3 -15 1 -15 12 0 10 -4 13 -12 9
-10 -6 -10 -4 0 8 15 19 0 34 -21 22 -9 -6 -9 -4 1 8 11 14 10 17 -6 23 -15 4
-20 14 -18 40 1 18 -1 33 -4 33 -12 -2 -40 15 -40 24 0 5 5 6 10 3 6 -3 10 -1
10 4 0 6 -4 11 -9 11 -5 0 -12 9 -16 19 -3 11 -14 22 -23 24 -15 4 -15 5 2 6
16 1 16 3 -5 21 -21 18 -22 19 -4 15 17 -5 16 -4 -2 6 -20 11 -33 32 -39 67
-1 6 1 10 5 7 4 -2 8 2 8 9 0 8 -7 12 -15 9 -12 -5 -12 -2 -2 18 13 23 12 23
-5 9 -17 -14 -18 -13 -13 8 4 13 0 28 -9 37 -8 8 -11 15 -7 15 5 0 3 5 -3 11
-6 6 -9 18 -6 27 5 11 3 13 -8 7 -12 -7 -12 -6 -1 7 10 13 10 17 -4 22 -9 4
-14 9 -11 13 4 3 1 13 -6 21 -9 13 -9 14 1 8 7 -4 12 -1 12 8 0 9 -4 16 -10
16 -5 0 -10 5 -10 11 0 5 4 8 8 5 5 -3 9 1 9 9 0 8 -3 12 -7 10 -4 -2 -12 7
-19 21 -6 15 -7 23 -1 19 5 -3 10 -1 10 4 0 6 -4 11 -9 11 -5 0 -11 7 -14 14
-4 11 -1 13 11 9 16 -6 16 -5 1 13 -9 11 -14 32 -12 52 2 24 0 31 -10 26 -6
-4 -3 3 7 15 17 18 17 21 3 15 -17 -6 -22 4 -18 35 2 8 -2 10 -10 5 -8 -5 -10
-3 -5 5 5 7 15 10 23 6 13 -4 14 -3 3 10 -7 8 -17 12 -23 8 -6 -3 -7 -1 -3 6
4 6 11 9 16 6 5 -3 12 0 16 6 4 7 3 9 -2 6 -6 -3 -16 -2 -24 4 -10 6 -11 9 -2
9 6 0 12 8 12 18 0 13 -2 14 -9 3 -6 -9 -8 -5 -8 13 0 14 4 26 9 26 5 0 6 -5
2 -12 -5 -7 -3 -8 6 -3 10 6 10 11 -4 20 -16 12 -17 39 -3 62 4 6 2 15 -4 19
-8 5 -9 3 -4 -7 5 -8 4 -11 0 -6 -11 9 -14 48 -4 42 4 -3 9 2 13 10 3 8 0 17
-6 21 -7 5 -8 2 -3 -7 5 -8 4 -11 0 -6 -11 10 -14 48 -3 41 12 -8 10 10 -4 24
-9 9 -9 12 0 12 7 0 12 7 12 16 0 8 -3 13 -8 11 -4 -3 -7 14 -7 38 0 24 2 42
5 40 8 -5 3 212 -5 226 -5 7 -4 10 3 5 6 -3 13 -2 17 4 3 5 1 10 -6 10 -8 0
-8 4 1 15 7 8 8 15 3 15 -12 0 -13 31 -1 46 14 19 18 53 6 60 -7 5 -8 2 -3 -6
5 -9 4 -11 -4 -6 -16 10 -3 29 16 22 8 -3 12 -2 8 3 -3 5 -2 11 2 14 5 2 2 2
-5 1 -6 -2 -12 1 -12 7 0 6 -5 7 -12 3 -7 -4 -8 -3 -4 5 4 6 11 9 16 6 13 -8
30 51 18 63 -6 6 -6 12 1 16 6 4 11 13 11 19 0 7 -4 6 -10 -3 -8 -12 -10 -11
-10 8 0 12 5 22 11 22 8 0 7 6 -2 17 -10 11 -10 14 -1 9 6 -4 12 -3 12 3 0 5
-5 13 -11 16 -7 5 -4 14 8 28 10 11 13 17 6 14 -6 -4 -15 -3 -18 3 -4 6 -1 9
6 8 6 -2 14 3 17 11 2 8 0 11 -5 8 -5 -3 -9 3 -9 13 0 10 3 17 6 15 3 -2 12 0
20 6 8 5 10 9 4 9 -6 0 -11 11 -11 25 0 14 4 22 10 18 5 -3 7 0 5 8 -3 8 -2
26 3 40 4 16 3 31 -4 38 -8 8 -6 11 9 12 10 0 14 3 7 5 -7 3 -9 12 -6 20 3 7
8 12 12 9 4 -2 8 2 8 10 0 8 -4 12 -9 9 -4 -3 -8 -1 -8 5 0 5 8 12 18 14 16 4
16 5 -1 6 -10 0 -15 6 -12 11 4 6 12 7 18 3 7 -4 6 0 -2 10 -12 15 -9 21 11
18 9 -1 4 27 -7 36 -4 4 -5 2 0 -6 6 -10 4 -12 -4 -6 -9 5 -10 10 -2 18 14 14
14 30 1 22 -5 -3 -2 7 7 24 10 16 22 27 27 24 5 -3 6 -1 2 5 -3 5 0 13 6 16 7
3 2 3 -12 0 l-25 -7 25 23 c21 18 22 21 5 16 -18 -6 -19 -5 -3 7 14 11 15 16
5 27 -9 10 -9 11 1 6 11 -7 15 8 15 66 0 10 6 15 18 13 18 -4 18 -2 3 21 -16
23 -16 24 2 17 17 -6 17 -5 5 10 -7 9 -9 17 -4 17 5 0 10 15 11 33 1 17 8 37
15 42 7 6 11 18 9 29 -3 12 0 16 7 11 14 -8 10 17 -4 27 -6 5 -5 8 3 8 7 0 10
5 7 10 -3 6 2 10 12 10 10 0 14 3 8 8 -11 8 -11 15 0 49 4 13 10 21 14 19 3
-2 7 7 7 20 1 15 -2 21 -10 17 -6 -4 -5 1 3 10 7 9 18 14 25 10 6 -4 4 2 -4
12 -9 11 -10 16 -2 11 12 -7 16 4 13 33 -2 8 2 10 11 5 10 -6 10 -4 -1 9 -11
14 -11 18 3 23 9 3 13 10 10 15 -3 5 -10 6 -16 3 -7 -4 -8 -2 -4 5 4 6 12 9
17 6 5 -4 9 -1 9 5 0 6 6 8 13 4 6 -4 9 -4 5 1 -4 4 -3 16 2 26 7 11 7 20 0
24 -11 7 -2 35 12 35 6 0 5 -8 -3 -17 -11 -16 -11 -16 1 -5 18 15 20 34 5 44
-6 5 -3 8 7 8 9 0 20 5 24 12 4 7 3 8 -4 4 -20 -12 -8 33 14 50 10 8 12 13 4
9 -11 -5 -11 -3 2 7 10 9 13 19 8 28 -8 14 14 59 25 53 13 -8 16 -1 6 11 -13
16 1 32 19 21 6 -3 7 1 4 9 -3 9 -11 13 -18 9 -6 -4 -5 1 3 11 11 13 16 14 23
4 6 -9 7 -6 3 8 -4 14 0 24 9 27 9 4 13 15 11 27 -3 14 1 20 10 18 7 -2 13 2
12 7 -1 6 -5 9 -8 8 -3 -1 -6 4 -6 12 0 8 4 12 8 9 4 -2 11 1 15 7 3 6 1 15
-6 19 -8 5 -7 9 5 13 10 5 14 3 9 -5 -4 -7 -3 -8 4 -4 7 4 12 14 12 22 0 10 5
12 13 8 9 -6 9 -4 -1 8 -9 11 -10 18 -2 23 5 3 10 1 10 -6 0 -7 3 -9 6 -6 4 4
1 13 -6 22 -10 12 -10 15 5 15 11 0 15 5 11 16 -4 10 -2 13 6 8 8 -5 9 -2 5
10 -4 9 -3 14 2 11 5 -3 12 -1 16 5 3 5 -2 10 -12 11 -17 0 -17 1 0 7 23 10
48 58 41 80 -4 10 -2 13 3 7 11 -14 36 -18 28 -5 -4 6 -1 17 5 25 6 8 10 18 7
22 -3 4 1 14 9 21 8 7 14 9 14 5 0 -12 20 20 20 32 0 6 -5 3 -11 -5 -9 -13
-10 -13 -6 0 2 8 12 14 21 14 13 -2 14 1 5 13 -10 11 -10 14 2 11 10 -2 14 6
12 27 0 17 1 25 4 18 2 -7 11 -9 19 -6 13 5 13 7 2 14 -10 7 -8 9 6 9 15 0 16
3 6 15 -7 8 -10 16 -6 16 3 1 12 2 19 3 6 1 11 8 9 15 -2 8 3 11 12 8 11 -4
13 -1 9 10 -5 12 -3 14 8 8 12 -8 12 -6 0 8 -8 10 -11 20 -7 24 3 3 6 1 6 -5
0 -7 5 -12 10 -12 6 0 9 6 8 13 -2 6 3 11 10 9 6 -1 12 2 12 8 0 5 -5 10 -10
10 -6 0 1 12 15 27 14 15 25 33 25 40 0 7 7 10 17 6 11 -4 14 -3 9 5 -4 7 -2
12 6 12 11 0 10 2 0 9 -11 7 -10 10 3 15 9 3 21 3 27 0 6 -4 6 2 -1 14 -10 18
-8 20 8 17 12 -2 18 2 17 13 0 9 5 16 12 14 10 -2 10 2 2 18 -8 15 -8 18 3 14
18 -6 51 31 41 47 -5 9 -2 10 10 6 10 -4 15 -3 11 3 -3 6 1 13 9 16 9 3 13 11
9 17 -4 6 0 8 9 5 11 -5 15 0 14 14 0 12 6 23 14 25 13 4 13 3 0 -7 -13 -10
-13 -11 0 -7 8 2 16 9 16 15 1 7 2 16 3 21 0 5 10 11 21 14 13 3 18 10 14 21
-5 12 -2 15 10 10 11 -4 16 0 16 14 0 11 8 26 18 33 15 13 16 12 3 -4 -8 -9
-11 -20 -9 -23 3 -3 12 9 19 26 8 16 19 28 26 26 7 -3 10 1 7 7 -2 7 8 24 22
37 15 14 24 19 19 11 -5 -9 -4 -12 3 -7 7 4 12 14 12 22 0 8 5 12 10 9 6 -3
10 0 10 8 0 8 8 21 18 28 15 13 16 12 4 -3 -9 -11 -10 -18 -2 -23 6 -4 10 -3
9 2 -4 16 13 43 24 36 6 -4 8 2 5 15 -4 12 -2 20 3 16 5 -3 9 -1 9 5 0 6 7 8
15 5 14 -6 21 12 16 39 -1 5 3 6 9 2 6 -3 7 -11 4 -17 -4 -7 -2 -8 4 -4 7 4
12 15 12 24 0 15 2 15 10 2 9 -13 10 -13 11 0 1 8 1 19 0 24 -1 5 5 3 14 -4
13 -11 15 -10 9 4 -4 10 0 18 12 23 23 8 64 50 57 57 -3 3 4 3 16 1 12 -2 19
0 16 6 -4 5 -1 9 4 9 6 0 10 6 8 13 -1 6 4 11 11 10 6 -2 12 2 12 7 0 6 7 10
15 10 8 0 15 6 15 14 0 8 6 14 13 13 6 0 21 1 32 2 17 1 18 3 5 11 -13 8 -12
10 3 10 10 0 16 4 13 9 -4 5 4 7 16 4 19 -4 20 -3 8 6 -13 10 -8 15 13 12 4 0
7 3 7 9 0 5 10 14 23 20 21 11 21 10 3 -4 -11 -9 -16 -16 -10 -16 5 0 23 13
40 30 18 16 35 26 39 22 5 -4 5 2 1 13 -4 11 -4 16 0 12 4 -4 16 1 27 10 11
10 18 13 14 8 -3 -6 4 -11 16 -12 12 0 16 1 10 4 -19 7 -15 24 5 21 9 -2 16 2
15 9 -1 6 4 17 13 23 12 11 13 10 8 -6 -5 -18 -5 -18 9 -2 8 10 18 14 22 10 5
-4 6 0 3 9 -4 9 -1 16 8 16 7 0 10 -5 7 -10 -4 -6 -1 -7 6 -3 7 5 10 14 7 22
-3 8 0 11 8 8 7 -3 16 2 20 11 5 13 10 14 27 4 17 -9 20 -8 14 2 -6 9 -3 11 8
6 12 -4 14 -2 10 10 -4 11 -2 14 5 9 7 -4 12 -2 12 4 0 6 5 8 10 5 6 -3 10 -1
10 5 0 6 5 8 10 5 6 -3 10 -1 10 5 0 7 7 10 14 7 11 -4 13 -1 9 11 -6 15 -5
16 12 2 11 -9 16 -10 11 -2 -4 7 -1 12 8 13 37 3 41 5 40 21 -1 14 2 16 18 7
16 -9 20 -7 25 10 3 11 9 18 14 15 5 -3 6 -11 2 -17 -4 -7 1 -6 11 2 9 8 14
21 11 29 -4 12 -3 13 10 2 11 -9 15 -9 15 -1 0 7 8 11 18 9 10 -2 16 2 14 10
-1 8 2 11 8 7 5 -3 10 -2 10 4 0 6 7 7 17 4 11 -5 14 -3 8 6 -6 10 -3 11 15 1
19 -10 22 -9 27 9 3 11 9 18 14 15 5 -3 6 -10 3 -16 -4 -7 -2 -8 4 -4 6 4 9
13 6 21 -4 10 0 12 17 8 17 -5 20 -3 14 8 -7 11 -5 11 10 -1 11 -9 16 -10 11
-2 -4 6 -2 12 3 12 18 0 26 -5 23 -13 -1 -5 2 -6 7 -2 6 3 8 12 5 20 -4 10 0
13 15 10 11 -2 20 -1 20 3 -3 19 2 25 11 12 8 -13 11 -13 22 -1 11 11 11 13
-1 6 -10 -6 -12 -4 -6 5 6 10 11 9 23 -6 12 -16 14 -16 9 -2 -3 10 -2 20 3 23
6 4 10 1 10 -4 0 -6 4 -11 10 -11 5 0 7 7 3 16 -5 14 -3 15 14 6 11 -6 23 -9
26 -6 3 3 11 7 19 8 29 6 67 29 61 38 -3 6 4 5 16 -1 15 -8 21 -9 21 -1 0 6 5
8 10 5 6 -3 10 0 10 7 0 11 2 10 9 0 6 -11 9 -10 13 5 5 20 48 29 48 10 0 -8
3 -7 9 2 5 8 16 11 24 8 9 -3 17 -1 19 5 2 6 12 12 21 14 9 1 15 -2 11 -7 -3
-5 -10 -6 -16 -3 -7 4 -8 2 -4 -5 6 -8 12 -9 20 -2 7 6 15 8 19 5 3 -3 3 5 0
18 -5 23 -5 23 11 3 10 -11 15 -14 11 -7 -4 7 0 12 10 12 10 0 13 5 9 13 -5 8
-2 8 9 -2 12 -9 17 -10 17 -2 0 9 5 9 20 1 11 -6 20 -7 20 -3 0 4 11 16 24 25
18 13 23 13 23 3 0 -8 -4 -12 -8 -10 -3 3 -13 -3 -20 -13 -13 -15 -12 -16 4
-3 9 7 17 10 17 6 0 -4 6 -3 13 4 10 8 17 7 27 -2 12 -10 12 -9 2 5 -8 10 -9
19 -3 22 5 3 11 1 13 -5 2 -5 11 -7 21 -4 9 4 14 12 10 19 -3 6 4 2 16 -8 19
-17 21 -17 15 -3 -5 15 -3 16 21 7 22 -8 26 -8 22 4 -4 9 0 13 11 11 9 -2 19
-4 22 -4 3 -1 -2 -6 -10 -12 -13 -9 -13 -10 0 -6 8 2 14 10 12 17 -2 7 3 10
12 7 9 -4 18 -2 21 3 3 5 21 8 41 6 19 -1 37 1 40 6 3 5 10 5 16 2 6 -4 14 0
19 7 6 9 9 10 9 2 0 -16 60 -8 71 9 6 8 9 9 9 2 0 -7 6 -14 13 -17 8 -3 14 1
14 9 0 7 -5 10 -11 7 -6 -4 -5 1 3 10 14 18 23 22 19 10 -2 -5 2 -8 7 -8 6 0
9 4 7 8 -1 5 2 6 8 2 6 -3 8 -10 6 -14 -3 -4 1 -8 9 -8 8 0 12 4 9 9 -8 13 10
10 25 -4 11 -11 12 -10 6 1 -6 10 -4 13 7 8 9 -3 21 0 27 6 8 8 11 8 11 -1 0
-7 5 -12 11 -12 5 0 7 5 4 10 -8 13 1 13 27 -1 18 -10 20 -9 15 5 -5 12 -3 15
6 9 22 -13 49 -14 42 -1 -4 7 1 4 9 -6 9 -12 16 -15 16 -7 0 8 12 12 33 11 53
-3 69 -1 62 10 -3 6 1 7 9 4 9 -3 13 -10 10 -15 -3 -5 2 -6 10 -3 9 3 13 10
10 16 -3 5 3 4 14 -3 17 -10 25 -10 46 5 17 11 25 12 24 4 -2 -7 7 -13 19 -14
12 -1 20 3 17 8 -3 4 -10 6 -15 3 -5 -4 -9 -1 -9 4 0 16 16 13 34 -5 9 -8 16
-12 16 -8 0 3 7 1 15 -6 13 -11 14 -10 8 5 -5 14 -3 17 10 12 9 -3 17 -2 17 4
0 6 5 7 10 4 8 -5 7 -12 -2 -23 -11 -15 -11 -15 2 -6 8 6 27 10 42 9 15 -1 25
2 22 7 -3 4 -1 8 5 8 5 0 12 -6 14 -12 3 -8 6 -6 6 5 1 9 5 17 11 17 5 0 7 -8
4 -17 -5 -15 -4 -15 4 -4 9 13 13 13 28 0 16 -12 17 -12 12 1 -4 12 1 16 26
15 17 -1 35 4 39 9 5 7 7 5 4 -4 -2 -8 -13 -15 -25 -15 -11 0 -23 -2 -26 -5
-3 -3 10 -6 29 -6 20 0 35 5 35 12 0 7 7 15 16 18 15 6 15 4 3 -10 -12 -15
-11 -16 10 -9 16 5 26 3 32 -6 7 -11 9 -9 9 6 0 16 2 17 9 5 6 -8 7 -18 4 -24
-3 -5 -1 -6 5 -2 7 4 12 15 12 24 1 13 5 11 16 -8 8 -14 13 -17 10 -8 -3 12
-1 15 10 11 7 -3 14 1 14 8 0 7 3 9 6 6 4 -4 1 -13 -6 -22 -11 -13 -10 -14 4
-9 9 3 16 11 16 18 1 6 7 0 15 -14 8 -14 14 -19 15 -11 0 8 2 12 6 9 3 -3 21
-2 40 2 19 4 34 4 34 -1 0 -5 5 -9 11 -9 5 0 7 6 4 13 -4 6 0 4 8 -6 14 -16
15 -16 21 -1 5 13 10 14 18 6 6 -6 17 -8 24 -5 8 3 14 -1 14 -8 0 -11 3 -11
10 1 8 12 10 12 10 1 0 -11 3 -11 15 -1 10 9 15 9 15 1 0 -6 3 -10 8 -10 28 5
52 -2 46 -13 -4 -7 3 -4 16 7 20 17 22 17 17 3 -4 -12 -2 -15 7 -12 8 3 17 1
21 -5 3 -6 11 -11 17 -11 5 0 0 9 -13 21 -24 20 -24 20 -1 9 12 -6 22 -7 22
-3 0 4 5 1 10 -8 7 -12 20 -15 52 -12 24 2 49 6 56 8 7 3 10 1 7 -4 -8 -14 9
-21 25 -11 9 6 19 3 28 -8 12 -15 13 -15 9 -1 -3 9 1 16 9 16 9 0 13 -6 9 -15
-4 -12 -3 -13 10 -2 10 8 15 9 15 1 0 -6 5 -11 11 -11 5 0 8 3 6 8 -3 4 5 7
18 7 13 0 21 -3 19 -7 -3 -4 4 -12 15 -17 25 -14 34 -14 25 0 -4 8 -1 8 12 1
11 -5 25 -7 33 -4 8 2 11 0 8 -5 -3 -5 0 -10 8 -10 8 0 11 5 8 11 -4 6 0 5 9
-1 8 -7 19 -9 23 -5 5 4 6 0 3 -8 -4 -12 3 -15 33 -16 21 -1 36 2 33 7 -3 5
-3 9 1 9 3 0 10 -10 15 -22 7 -18 9 -19 9 -5 1 15 4 16 24 5 12 -7 25 -11 29
-10 4 1 5 -5 2 -13 -4 -8 -10 -12 -15 -9 -5 3 -9 -2 -9 -11 0 -11 -5 -15 -14
-12 -8 3 -20 -2 -28 -11 -12 -16 -11 -16 6 -2 18 14 18 14 6 -7 -8 -11 -20
-19 -27 -16 -9 4 -11 0 -7 -10 4 -11 -2 -18 -19 -22 -15 -4 -24 -12 -21 -19 3
-8 -8 -19 -26 -26 -24 -10 -28 -15 -19 -27 10 -11 9 -12 -4 -7 -12 4 -20 -2
-28 -22 -7 -16 -12 -32 -11 -35 1 -4 -9 -4 -21 -1 -20 5 -21 4 -7 -13 8 -10
10 -16 4 -12 -6 3 -20 -1 -30 -9 -10 -9 -12 -12 -4 -8 8 3 1 -6 -16 -22 -16
-16 -21 -22 -10 -14 12 8 2 -5 -22 -29 -26 -26 -41 -49 -38 -58 4 -9 2 -11 -6
-7 -7 5 -9 2 -5 -8 4 -12 0 -15 -16 -12 -12 2 -16 1 -8 -2 11 -5 9 -11 -10
-26 -13 -11 -17 -16 -9 -12 12 6 13 5 3 -8 -7 -8 -10 -18 -6 -22 4 -4 0 -4
-10 0 -16 6 -18 4 -21 -38 -1 -16 -29 -46 -37 -42 -4 2 -12 -3 -19 -11 -11
-13 -10 -14 6 -9 16 6 17 5 7 -7 -7 -7 -13 -18 -13 -23 0 -6 5 -4 10 4 6 10
10 11 10 3 0 -7 8 -13 18 -13 14 0 15 -2 2 -10 -13 -8 -12 -10 3 -10 9 0 17
-5 17 -11 0 -8 6 -7 17 2 14 12 16 12 8 0 -6 -11 -4 -13 9 -8 10 4 19 1 22 -8
4 -8 11 -12 18 -8 6 4 4 -2 -4 -13 -8 -10 -10 -16 -6 -12 5 4 16 2 24 -5 13
-10 14 -9 8 1 -7 11 -4 12 11 3 11 -6 24 -7 28 -3 5 4 5 1 1 -6 -4 -7 -12 -9
-18 -6 -7 5 -8 2 -4 -5 5 -7 14 -10 22 -7 8 3 14 1 14 -5 0 -6 7 -9 15 -5 8 3
15 2 15 -2 0 -4 16 -16 35 -26 19 -11 41 -26 48 -35 10 -12 9 -13 -2 -6 -10 5
-12 4 -7 -4 6 -9 11 -9 22 0 9 7 14 8 13 3 -4 -23 3 -34 21 -34 20 0 44 -32
33 -44 -3 -3 -4 -6 0 -6 3 0 13 8 23 18 17 16 17 16 12 -6 -5 -20 -4 -21 8
-11 8 7 14 8 13 3 -4 -21 2 -33 14 -28 7 2 25 -9 40 -26 15 -16 32 -30 37 -30
6 0 10 -8 10 -17 0 -15 2 -16 10 -3 8 13 10 13 10 -2 0 -9 9 -20 20 -23 11 -4
17 -11 14 -17 -5 -7 -1 -9 9 -5 16 6 22 -3 18 -26 -1 -4 6 -7 15 -5 9 2 19 -3
22 -11 3 -9 0 -11 -8 -6 -9 5 -11 4 -6 -4 6 -9 11 -9 22 0 9 7 14 8 12 3 -4
-15 74 -94 94 -94 10 0 18 -4 18 -10 0 -5 -8 -7 -17 -3 -10 3 -3 -6 15 -20 19
-14 40 -34 49 -44 8 -10 12 -12 8 -3 -4 10 -2 9 8 -2 8 -10 18 -14 23 -10 4 4
2 -2 -6 -12 -14 -18 -13 -19 8 -14 18 5 21 4 13 -6 -14 -16 -4 -27 17 -19 9 4
13 2 9 -4 -4 -5 0 -19 8 -29 15 -18 15 -18 9 1 -4 12 4 6 19 -14 15 -19 24
-39 20 -45 -3 -6 -3 -8 2 -4 13 12 45 -11 45 -33 0 -13 4 -18 12 -13 8 5 9 2
5 -9 -3 -9 -1 -19 5 -23 7 -4 8 -3 4 4 -4 7 -2 12 3 12 6 0 11 -9 11 -19 0
-10 8 -22 17 -25 15 -6 15 -8 3 -17 -11 -8 -9 -9 9 -4 16 5 21 4 17 -4 -4 -6
-2 -11 3 -11 6 0 11 -5 11 -11 0 -5 -5 -7 -12 -3 -7 4 -8 3 -4 -5 4 -6 12 -9
17 -6 5 4 12 -1 15 -9 3 -9 10 -14 15 -11 4 3 6 -4 4 -15 -2 -13 1 -20 11 -20
8 0 14 -5 14 -11 0 -5 -5 -7 -12 -3 -7 4 -8 3 -4 -4 4 -6 14 -8 22 -5 13 5 15
1 9 -16 -3 -12 -3 -21 2 -20 28 5 36 -2 17 -16 -18 -13 -18 -14 6 -9 20 5 22
3 10 -5 -12 -9 -10 -11 10 -11 20 0 22 -2 10 -10 -10 -6 -11 -10 -2 -10 6 0
12 -10 12 -22 0 -19 2 -20 10 -8 8 12 10 11 10 -7 0 -13 4 -23 9 -23 5 0 12
-14 16 -31 4 -19 15 -33 26 -36 10 -3 16 -9 13 -14 -3 -5 0 -9 5 -9 6 0 11 -5
11 -11 0 -5 -4 -7 -10 -4 -5 3 -10 1 -10 -6 0 -7 8 -9 21 -6 12 3 18 3 15 0
-3 -4 0 -13 7 -22 10 -14 10 -14 -3 -6 -10 6 -9 4 1 -6 14 -13 15 -19 6 -29
-9 -10 -9 -11 1 -6 19 11 41 -11 35 -34 -3 -12 0 -20 6 -20 7 0 9 -4 6 -10 -3
-5 1 -10 9 -10 10 0 13 -6 9 -17 -5 -11 -3 -14 6 -8 10 6 11 3 1 -15 -7 -12
-8 -20 -3 -17 4 3 17 -2 28 -10 20 -16 20 -16 0 -9 -19 6 -19 5 -3 -8 10 -7
19 -25 20 -39 2 -19 7 -24 23 -21 19 3 19 3 1 -11 -19 -14 -18 -15 5 -24 13
-5 17 -10 9 -10 -10 -1 -11 -4 -3 -12 6 -6 9 -18 6 -27 -5 -11 -3 -13 7 -7 10
6 12 4 7 -8 -4 -10 -2 -14 6 -11 8 3 14 -7 15 -28 2 -18 7 -34 12 -36 6 -2 10
-8 10 -13 0 -6 -5 -7 -12 -3 -7 4 -8 3 -4 -5 6 -9 11 -9 24 1 13 11 14 11 8
-1 -5 -8 -3 -17 5 -23 11 -8 10 -9 -4 -4 -16 5 -16 4 0 -22 16 -24 16 -26 1
-14 -15 12 -16 11 -5 -11 10 -22 13 -23 23 -9 10 14 11 12 7 -11 -4 -19 -1
-27 8 -27 11 0 11 -2 -1 -10 -8 -5 -10 -10 -4 -10 6 0 11 -8 11 -17 0 -36 3
-44 14 -37 8 5 10 -1 7 -20 -4 -19 -2 -26 7 -22 14 5 14 -11 1 -33 -6 -10 -5
-12 2 -7 8 5 12 -2 12 -20 0 -24 2 -25 18 -13 13 10 12 8 -3 -10 -19 -23 -19
-24 -1 -17 17 6 17 5 5 -11 -12 -15 -12 -16 5 -10 16 6 17 5 6 -8 -8 -10 -9
-15 -1 -15 6 0 11 -5 11 -11 0 -5 -4 -8 -8 -5 -5 3 -9 -1 -9 -9 0 -8 6 -15 13
-15 7 0 16 -4 19 -10 3 -5 0 -7 -8 -4 -8 3 -18 0 -23 -7 -4 -8 -3 -10 4 -5 7
4 12 2 12 -5 0 -6 8 -9 20 -6 11 3 20 1 20 -4 0 -5 -5 -9 -12 -9 -6 0 -9 -2
-6 -5 12 -12 36 8 33 26 -3 16 -1 17 16 9 13 -7 19 -7 19 0 0 5 5 9 12 7 7 -1
12 5 13 13 0 8 9 15 20 15 11 0 20 5 20 12 0 6 4 15 9 20 5 5 6 3 2 -4 -4 -7
-2 -13 3 -13 10 0 15 14 12 33 -1 5 4 5 11 1 23 -15 37 -13 31 4 -5 11 -2 14
10 9 11 -4 14 -2 10 9 -5 13 14 20 42 14 6 -1 4 4 -3 11 -6 7 -12 18 -12 24 0
5 4 4 8 -3 7 -10 13 -10 34 1 22 11 24 16 15 33 -9 17 -9 18 7 5 14 -12 18
-12 30 4 7 10 18 15 23 12 13 -8 26 20 16 36 -4 7 1 6 10 -2 12 -9 17 -10 17
-2 0 7 4 9 10 6 6 -4 7 1 3 11 -4 12 -3 15 5 10 7 -4 12 -2 12 4 0 6 5 8 10 5
9 -5 14 7 12 26 -1 4 8 4 20 1 17 -4 20 -2 15 12 -5 11 -3 15 5 10 8 -5 9 -2
4 11 -5 15 -4 16 9 5 11 -9 15 -9 15 -1 0 7 4 10 9 6 6 -3 8 3 6 14 -2 13 1
18 10 15 14 -6 47 34 40 47 -3 4 5 5 17 1 20 -5 21 -3 10 10 -10 13 -9 15 14
12 18 -2 24 1 20 11 -3 8 -1 17 4 20 4 3 11 -1 13 -7 3 -7 6 -2 6 11 1 16 5
21 16 17 14 -5 17 -1 19 33 1 8 7 16 14 17 7 1 8 0 2 -3 -5 -2 -7 -9 -4 -15 4
-5 15 3 25 18 10 15 16 31 13 35 -2 4 1 11 7 15 8 4 9 3 5 -4 -4 -7 -3 -12 3
-12 5 0 13 9 16 21 9 28 36 59 52 59 7 0 10 7 7 15 -5 11 -2 14 12 9 11 -4 16
-4 12 0 -9 10 14 36 25 29 5 -3 4 5 -3 17 -8 15 -8 20 -1 16 19 -12 33 4 19
22 -8 9 -8 13 -2 9 7 -4 20 1 31 11 10 9 13 13 6 8 -10 -6 -12 -4 -7 8 3 9 13
16 21 16 8 0 11 5 8 10 -3 6 -1 10 5 10 6 0 8 5 4 12 -5 8 -2 9 11 4 16 -6 16
-4 4 11 -8 9 -9 14 -4 11 6 -4 19 1 30 9 16 12 16 14 3 10 -10 -3 -20 -1 -24
6 -4 7 -4 9 1 5 10 -10 37 11 29 23 -3 5 2 9 11 9 9 0 14 4 11 9 -3 5 1 12 10
15 11 4 15 15 12 35 -3 21 -1 28 9 24 7 -3 13 2 13 12 0 10 5 14 13 9 6 -4 9
-4 5 1 -4 4 -2 15 5 23 9 13 9 14 0 8 -7 -4 -13 -2 -13 3 0 6 7 11 15 11 8 0
15 5 15 11 0 5 6 7 13 3 9 -6 9 -5 0 7 -10 12 -10 18 0 29 6 7 7 10 2 7 -6 -3
-11 3 -11 13 0 15 3 17 15 7 12 -10 14 -9 8 7 -7 17 -5 17 10 5 10 -7 15 -10
11 -5 -4 5 -2 18 4 30 10 18 9 19 -3 9 -12 -10 -15 -8 -15 6 0 13 5 17 16 13
13 -5 13 -4 0 14 -8 10 -11 16 -6 12 14 -12 45 35 36 53 -7 12 -4 15 13 15 21
-1 64 -43 59 -58 -1 -5 5 -8 13 -8 8 0 15 -5 15 -11 0 -5 5 -7 10 -4 6 3 10 0
10 -8 0 -8 7 -17 15 -21 8 -3 15 -11 15 -18 0 -17 36 -48 46 -40 4 4 5 0 1 -9
-4 -11 0 -16 11 -15 11 1 16 -6 15 -18 -1 -13 2 -15 10 -7 6 6 16 11 21 11 6
0 4 -5 -4 -10 -13 -9 -13 -11 0 -20 8 -5 11 -10 6 -10 -5 0 -1 -9 9 -20 10
-11 24 -20 32 -20 7 0 13 -5 13 -11 0 -6 7 -9 15 -5 13 5 14 2 4 -15 -8 -15
-8 -19 0 -15 6 4 11 2 11 -3 0 -6 7 -11 16 -11 8 0 12 -4 9 -10 -3 -5 2 -10
11 -10 10 0 15 -3 11 -6 -9 -9 16 -33 28 -26 6 3 3 -3 -5 -13 -9 -11 -10 -16
-2 -11 7 4 14 1 18 -8 3 -9 12 -12 22 -8 15 5 15 4 2 -14 -8 -10 -11 -16 -6
-12 10 8 76 -50 76 -67 0 -7 10 -17 23 -24 12 -6 14 -9 4 -7 -26 8 -5 -26 27
-44 14 -7 26 -19 26 -27 0 -7 7 -13 16 -13 8 0 12 -4 9 -10 -3 -5 3 -15 15
-22 11 -7 20 -18 20 -24 0 -7 7 -15 16 -18 8 -3 12 -10 9 -16 -6 -9 8 -15 29
-11 5 1 3 -5 -4 -14 -11 -13 -10 -14 5 -8 15 5 17 3 12 -11 -5 -11 -3 -15 5
-10 7 5 9 2 5 -8 -7 -19 11 -38 28 -31 10 3 12 -2 8 -19 -3 -16 -2 -19 5 -10
7 11 11 10 17 -5 5 -10 7 -25 6 -33 -2 -8 0 -12 4 -8 4 4 15 -1 24 -10 10 -11
12 -12 6 -2 -9 13 -8 13 8 1 14 -11 15 -16 5 -29 -11 -13 -10 -15 5 -9 11 4
16 3 12 -3 -3 -6 -1 -10 6 -10 7 0 9 -3 6 -7 -4 -3 4 -14 19 -23 14 -10 25
-20 25 -24 -3 -20 0 -26 9 -21 5 3 7 0 4 -8 -3 -8 2 -17 10 -20 9 -4 16 -13
16 -22 0 -8 5 -15 10 -15 6 0 10 -8 10 -19 0 -10 14 -30 31 -44 17 -14 28 -30
24 -36 -3 -6 2 -14 12 -18 34 -12 43 -24 33 -44 -8 -15 -7 -17 5 -13 8 4 15 1
15 -6 0 -6 7 -18 15 -27 8 -8 12 -20 8 -26 -4 -7 0 -8 13 -3 10 4 15 4 11 0
-4 -4 1 -13 11 -21 16 -12 16 -13 -3 -6 -17 6 -18 5 -5 -9 8 -9 18 -14 23 -11
6 4 12 -30 8 -51 -1 -5 6 -3 15 5 15 12 17 12 12 -1 -3 -9 6 -22 21 -32 14
-10 21 -18 15 -18 -5 0 -16 6 -23 13 -10 10 -11 9 -6 -5 4 -10 16 -20 27 -24
16 -5 18 -8 7 -15 -11 -7 -11 -9 3 -9 12 0 15 -5 11 -17 -4 -11 -3 -14 5 -9 7
4 12 2 12 -4 0 -6 5 -8 11 -4 8 5 8 1 0 -14 -8 -16 -7 -23 7 -33 15 -13 16
-12 3 4 -10 12 -10 17 -2 17 9 0 12 57 9 230 -3 212 -4 231 -22 247 -19 17
-19 17 -5 -1 9 -13 9 -17 2 -12 -7 4 -18 16 -23 26 -9 16 -8 19 7 14 10 -2 8
1 -5 7 -12 7 -22 18 -22 26 0 8 -3 12 -7 10 -5 -3 -17 7 -27 21 -11 14 -14 22
-6 17 8 -5 6 4 -5 23 -10 17 -28 35 -39 41 -12 5 -15 10 -8 10 6 1 12 6 12 11
0 6 -3 9 -7 9 -21 -3 -33 2 -31 14 2 6 -3 11 -10 9 -8 -1 -11 2 -7 8 3 5 1 10
-5 10 -7 0 -9 7 -6 16 3 8 2 12 -4 9 -6 -3 -10 1 -10 10 0 10 -5 13 -12 9 -8
-5 -7 0 2 11 9 11 10 16 3 11 -7 -4 -13 -2 -13 3 0 6 -7 11 -16 11 -8 0 -12 5
-9 10 3 6 1 10 -4 10 -6 0 -11 7 -11 16 0 9 -5 12 -12 8 -7 -5 -9 0 -6 14 3
12 3 21 -1 20 -17 -2 -32 3 -28 10 5 10 -40 51 -50 43 -4 -3 -2 1 5 10 10 14
10 18 -3 23 -9 3 -13 10 -10 16 4 6 -1 7 -12 3 -10 -3 -15 -3 -11 2 4 4 0 14
-10 22 -10 9 -11 12 -2 7 8 -4 4 4 -9 19 -14 15 -20 31 -16 39 6 10 5 11 -6 0
-19 -18 -28 -15 -24 9 3 17 1 19 -10 9 -10 -8 -15 -8 -21 1 -4 8 -3 9 4 5 8
-5 11 1 10 18 -1 13 -6 22 -10 20 -5 -3 -6 -11 -3 -17 3 -7 0 -4 -7 7 -20 29
-50 63 -42 47 5 -10 3 -12 -5 -7 -9 6 -9 11 0 22 10 12 9 13 -5 8 -11 -4 -16
-1 -16 11 0 9 -4 13 -10 10 -5 -3 -10 1 -10 9 0 9 -5 16 -11 16 -5 0 -7 5 -4
10 3 6 -3 10 -14 10 -15 0 -19 6 -17 25 2 13 0 24 -3 23 -22 -2 -32 4 -28 16
3 8 0 17 -8 20 -9 3 -12 -1 -9 -12 2 -9 -1 -7 -7 6 -7 12 -16 22 -21 22 -4 0
-8 10 -9 23 0 12 -3 16 -6 10 -2 -7 -9 -13 -14 -13 -4 0 -6 6 -3 13 5 15 -32
67 -47 67 -15 0 -39 26 -32 34 4 3 -1 6 -10 6 -9 0 -17 7 -17 16 0 8 -4 13 -9
10 -5 -3 -14 8 -21 24 -7 17 -18 30 -25 30 -7 0 -19 8 -26 17 -12 14 -12 16 1
9 9 -4 8 -2 -2 7 -10 8 -14 18 -10 23 4 4 0 3 -9 -4 -15 -11 -19 -9 -30 17 -7
16 -17 27 -21 25 -4 -3 -8 2 -8 10 0 8 -5 18 -12 22 -7 4 -8 3 -4 -4 5 -8 2
-10 -8 -6 -9 3 -14 10 -11 14 5 8 -13 25 -27 25 -3 0 -10 4 -15 9 -5 5 -2 6 7
2 9 -5 8 -2 -2 7 -10 8 -14 17 -10 21 4 4 3 7 -3 6 -24 -5 -35 1 -35 20 0 14
-7 20 -21 20 -16 0 -20 5 -17 18 3 11 0 19 -8 20 -8 1 -21 3 -29 4 -8 1 -12 5
-9 10 3 4 0 8 -7 8 -10 0 -10 3 -1 12 16 16 15 33 0 20 -10 -8 -13 -1 -11 31
2 58 2 59 11 53 4 -2 8 11 9 30 0 18 -3 32 -7 29 -10 -6 -8 15 3 33 5 6 4 12
-2 12 -5 0 -8 8 -6 18 1 9 -3 24 -9 32 -10 13 -9 13 6 1 10 -7 16 -17 13 -21
-3 -5 -1 -11 4 -15 10 -6 6 33 -4 43 -2 3 0 11 7 19 6 7 8 16 4 20 -3 3 -6 1
-6 -5 0 -7 -7 -12 -16 -12 -14 0 -14 1 0 16 15 14 14 17 -6 36 -13 11 -17 17
-10 13 7 -4 12 0 12 10 0 10 -5 13 -12 9 -8 -5 -7 0 2 11 11 14 12 19 2 22 -6
3 -12 14 -12 26 0 18 2 20 11 7 9 -12 10 -12 5 3 -3 10 -6 21 -6 23 0 3 -4 2
-10 -1 -6 -4 -6 3 0 21 8 21 8 25 -4 21 -10 -4 -13 2 -12 24 1 17 -2 33 -7 36
-6 4 -7 1 -2 -7 5 -9 4 -11 -3 -6 -8 5 -9 13 -2 25 6 13 5 24 -6 37 -9 11 -12
13 -8 5 5 -9 3 -12 -4 -7 -9 5 -9 13 -1 29 7 12 8 19 4 15 -4 -4 -14 -1 -21 7
-16 15 -19 29 -5 20 5 -3 13 -1 16 5 4 6 1 9 -7 8 -7 -2 -12 5 -12 15 1 9 -5
17 -13 17 -8 0 -12 4 -8 9 3 5 -2 16 -10 24 -11 12 -12 17 -2 20 9 4 9 6 0 6
-7 1 -13 10 -13 22 0 16 -4 19 -22 14 -15 -4 -18 -3 -10 3 13 9 12 46 -3 59
-4 5 -5 2 -1 -4 4 -7 3 -13 -2 -13 -6 0 -13 7 -16 16 -9 23 -8 26 7 18 7 -4 9
-3 4 2 -5 5 -14 9 -20 9 -7 0 -13 6 -13 13 -4 41 -6 46 -11 35 -8 -21 -22 -15
-16 7 3 11 0 20 -6 20 -6 0 -11 7 -11 16 0 10 -6 14 -14 11 -10 -4 -12 0 -9
14 3 11 0 19 -6 19 -7 0 -9 -5 -5 -12 4 -7 3 -8 -4 -4 -6 4 -9 13 -6 21 4 9
-9 29 -31 49 -23 22 -34 40 -29 48 4 7 4 10 -1 6 -4 -4 -14 0 -22 10 -9 10
-12 11 -7 2 4 -8 -5 -4 -19 9 -15 14 -27 30 -27 37 0 6 -8 18 -17 25 -17 13
-17 13 -3 -6 14 -18 13 -19 -1 -8 -9 7 -19 10 -23 6 -4 -4 -4 1 0 12 6 15 4
17 -10 12 -10 -4 -15 -3 -11 3 3 6 1 10 -4 10 -6 0 -11 7 -11 15 0 8 -3 14 -7
14 -21 -3 -33 2 -33 16 0 8 -9 15 -19 15 -11 0 -23 5 -26 10 -4 6 -10 8 -15 5
-5 -3 -7 4 -5 15 2 11 0 18 -6 15 -5 -4 -9 -1 -9 4 0 6 -7 11 -15 11 -8 0 -28
14 -45 31 -28 30 -44 29 -17 -1 10 -12 9 -12 -4 -2 -9 6 -19 9 -22 6 -4 -4 -5
2 -2 14 3 16 -1 20 -21 17 -13 -1 -27 2 -30 7 -3 4 -10 6 -15 3 -5 -4 -6 2 -2
11 5 13 2 16 -9 12 -18 -7 -30 0 -47 27 -9 14 -11 15 -7 3 3 -12 1 -15 -9 -11
-8 3 -12 9 -9 14 3 5 -4 9 -15 9 -12 0 -21 5 -21 11 0 6 -5 7 -12 2 -19 -11
-39 -13 -32 -2 3 5 10 7 15 4 15 -10 10 2 -8 16 -11 10 -14 10 -9 2 4 -7 3
-13 -2 -13 -6 0 -12 7 -15 15 -6 13 -35 14 -57 0 -6 -4 -10 -3 -9 2 3 19 -2
33 -12 33 -5 0 -8 -4 -4 -9 3 -5 0 -13 -6 -17 -8 -5 -9 -3 -4 6 6 10 4 12 -8
7 -10 -4 -20 0 -25 10 -6 10 -17 14 -31 10 -11 -3 -19 -1 -15 4 3 5 2 9 -3 10
-4 0 -16 2 -26 4 -9 2 -15 -1 -11 -6 3 -5 10 -6 16 -3 7 4 8 2 4 -4 -7 -12
-36 -5 -36 8 0 4 -7 11 -16 14 -8 3 -12 2 -9 -3 3 -5 1 -12 -5 -16 -5 -3 -10
1 -10 9 0 9 -3 16 -7 17 -5 0 -16 2 -26 4 -9 2 -15 0 -12 -4 2 -4 -2 -8 -10
-8 -8 0 -12 4 -10 8 3 4 -3 10 -12 13 -9 4 -20 1 -25 -6 -6 -10 -8 -10 -8 2 0
13 -2 13 -10 0 -7 -12 -12 -11 -32 5 -12 11 -17 13 -11 5 9 -12 7 -15 -12 -15
-13 0 -21 3 -18 8 7 12 -12 8 -26 -5 -9 -8 -11 -8 -8 -2 8 15 -20 27 -29 13
-3 -5 -15 -7 -26 -3 -15 4 -18 3 -13 -6 6 -9 3 -9 -13 -1 -11 6 -23 11 -27 11
-3 0 -3 -5 1 -11 4 -8 0 -8 -15 0 -14 8 -21 8 -21 1 0 -8 -6 -8 -20 0 -16 9
-20 8 -20 -5 0 -15 -1 -15 -16 -1 -14 14 -34 14 -34 0 0 -3 5 -2 12 2 7 4 8 3
4 -5 -4 -6 -12 -9 -17 -6 -5 4 -9 0 -9 -7 0 -10 -3 -9 -11 2 -7 11 -12 12 -15
3 -3 -7 -12 -9 -20 -6 -7 3 -11 9 -8 14 9 15 -3 10 -17 -8 -8 -10 -9 -14 -2
-10 6 4 14 4 17 -1 2 -4 -6 -8 -19 -8 -13 0 -22 3 -20 6 2 4 -5 6 -16 5 -11
-1 -25 -8 -30 -16 -7 -12 -9 -12 -10 1 0 10 -3 8 -9 -5 -5 -11 -9 -14 -9 -6
-1 11 -4 11 -16 1 -8 -7 -12 -17 -8 -24 4 -6 -1 -5 -11 3 -15 13 -19 13 -27 0
-6 -10 -9 -11 -9 -1 0 7 -5 10 -10 7 -6 -4 -8 -11 -5 -16 3 -5 -1 -6 -9 -3 -9
3 -13 11 -10 18 3 6 -4 0 -16 -14 -12 -14 -19 -20 -16 -13 4 6 1 15 -5 19 -7
4 -9 3 -6 -3 8 -13 -20 -26 -35 -16 -6 3 -8 1 -5 -4 4 -6 -1 -17 -10 -24 -9
-8 -14 -9 -10 -2 9 14 -16 11 -35 -5 -8 -6 -19 -8 -23 -4 -5 4 -5 1 -1 -5 4
-7 2 -13 -4 -13 -6 0 -8 -6 -5 -12 4 -7 -1 -4 -9 6 -15 18 -16 18 -16 2 0 -9
-4 -14 -10 -11 -5 3 -15 -3 -22 -15 -7 -11 -16 -20 -21 -20 -4 0 -6 4 -3 8 2
4 -3 8 -13 8 -10 0 -18 -6 -18 -13 0 -7 5 -9 11 -6 6 4 5 -1 -3 -10 -13 -17
-26 -24 -17 -9 2 4 -2 16 -10 27 -8 10 -14 14 -14 8 0 -6 -16 -10 -37 -8 -21
1 -38 7 -38 13 0 6 -4 14 -9 19 -5 5 -6 3 -2 -4 4 -8 1 -13 -9 -13 -10 0 -13
5 -9 13 5 7 0 6 -11 -3 -10 -8 -16 -10 -12 -3 4 6 3 14 -3 18 -5 3 -10 -1 -10
-10 0 -9 -5 -13 -10 -10 -6 4 -8 10 -5 15 3 5 0 12 -6 16 -8 4 -9 3 -5 -4 4
-7 2 -12 -3 -12 -6 0 -11 6 -11 13 0 7 -3 8 -8 2 -12 -17 -32 -16 -32 3 0 13
-2 14 -9 3 -7 -11 -11 -10 -21 5 -9 16 -11 16 -6 2 7 -24 -9 -31 -25 -11 -8 9
-9 14 -3 10 6 -3 11 0 11 8 0 12 -4 12 -20 -2 -18 -16 -20 -16 -14 -2 4 13 1
16 -15 11 -15 -4 -19 -2 -14 7 6 9 2 9 -14 -1 -18 -10 -24 -10 -27 0 -3 6 -9
12 -14 12 -6 0 -7 -5 -3 -11 3 -6 -6 -3 -22 7 -15 11 -25 14 -21 7 4 -6 2 -15
-4 -19 -8 -4 -9 -3 -5 4 4 7 2 12 -4 12 -6 0 -8 5 -5 10 4 6 3 10 -2 9 -4 -1
-12 0 -18 1 -5 1 -25 1 -42 0 -18 -1 -38 2 -45 6 -17 11 -48 12 -42 2 3 -4 1
-8 -5 -8 -5 0 -11 4 -13 9 -1 6 -15 12 -31 15 -19 3 -26 1 -21 -7 3 -7 -5 -1
-17 13 -14 16 -20 19 -16 8 3 -10 1 -20 -5 -24 -7 -4 -8 -3 -4 4 4 7 2 12 -4
12 -6 0 -8 5 -5 10 3 6 1 10 -4 10 -6 0 -11 -7 -11 -15 0 -18 -16 -20 -26 -3
-5 7 -3 8 6 3 7 -5 11 -4 8 1 -4 5 -34 9 -67 9 -34 0 -61 3 -61 8 0 4 -5 7
-11 7 -5 0 -7 -6 -3 -12 4 -7 -6 -2 -22 12 -16 14 -23 18 -16 10 16 -18 15
-27 -3 -27 -8 0 -12 4 -10 8 3 4 -2 10 -11 13 -8 3 -12 2 -9 -3 3 -5 1 -12 -5
-16 -5 -3 -10 1 -10 9 0 10 -6 13 -15 10 -8 -4 -12 -10 -9 -16 3 -5 -3 -4 -15
4 -12 7 -21 16 -21 20 0 5 -5 8 -11 8 -5 0 -8 -4 -5 -8 2 -4 -4 -8 -15 -8 -10
0 -19 4 -19 8 0 4 -5 8 -11 8 -5 0 -7 -6 -3 -12 4 -7 -2 -5 -13 5 -14 13 -23
15 -28 7 -5 -8 -11 -8 -21 1 -11 9 -14 8 -15 -7 0 -18 -1 -18 -9 1 -6 13 -9
15 -9 5 -1 -13 -2 -13 -11 0 -5 8 -10 10 -10 4 0 -12 -60 -12 -79 0 -6 4 -11
2 -11 -5 0 -7 -8 -5 -20 6 -20 18 -21 18 -13 -1 7 -18 6 -18 -20 -1 -18 12
-25 13 -21 4 3 -8 -2 -14 -10 -14 -8 0 -13 4 -11 8 3 4 -2 9 -10 12 -9 4 -12
1 -8 -9 4 -12 1 -13 -22 -4 -34 13 -38 13 -29 -2 4 -7 -3 -4 -15 6 -21 19 -21
19 -15 1 6 -13 4 -16 -6 -10 -16 10 -143 10 -160 0 -9 -5 -11 -4 -6 3 4 7 2
12 -3 12 -6 0 -11 -6 -11 -12 0 -9 -4 -8 -10 2 -9 13 -10 13 -11 0 0 -10 -3
-8 -9 5 -8 18 -9 18 -9 2 -1 -14 -5 -16 -20 -7 -24 13 -34 13 -26 1 3 -6 -6
-6 -25 -1 -17 5 -28 5 -25 0 2 -4 -4 -10 -16 -13 -15 -4 -18 -2 -10 7 13 15
-11 14 -49 -2 -20 -8 -28 -7 -39 6 -13 16 -13 16 -8 0 3 -10 2 -20 -3 -23 -9
-6 -14 8 -11 28 1 5 -3 6 -9 2 -6 -3 -7 -12 -3 -18 4 -7 -2 -5 -12 3 -17 14
-18 13 -12 -3 6 -15 4 -16 -14 -7 -11 7 -17 16 -12 23 4 7 0 7 -10 -2 -9 -7
-17 -10 -17 -7 0 4 -14 -3 -32 -15 -17 -13 -28 -17 -23 -9 6 10 4 12 -7 7 -9
-3 -21 0 -28 6 -10 9 -10 6 0 -13 12 -24 12 -24 -6 -9 -18 16 -49 15 -40 0 3
-4 -1 -8 -9 -8 -8 0 -14 3 -13 6 2 21 -4 22 -18 5 -15 -19 -16 -19 -10 1 6 18
5 19 -7 3 -11 -13 -16 -15 -25 -6 -9 9 -12 7 -13 -7 0 -11 -3 -14 -6 -7 -2 6
-9 12 -15 12 -6 0 -7 -7 -4 -16 5 -14 4 -15 -9 -4 -8 7 -12 17 -8 23 3 6 1 7
-6 3 -6 -4 -8 -13 -4 -19 4 -7 -2 -5 -12 3 -17 13 -18 13 -13 -1 6 -14 1 -15
-28 -9 -18 4 -32 4 -29 0 3 -4 -2 -10 -10 -14 -8 -3 -15 0 -15 7 0 8 -2 9 -8
1 -4 -6 -24 -11 -45 -10 -29 1 -36 -2 -32 -13 4 -11 0 -10 -14 3 -12 11 -21
14 -26 6 -3 -5 -10 -8 -15 -5 -5 3 -12 0 -16 -6 -4 -7 -3 -9 4 -5 6 3 14 1 18
-5 4 -8 3 -9 -4 -5 -7 4 -12 2 -12 -5 0 -7 -7 -4 -15 7 -13 18 -14 18 -15 1 0
-10 -5 -15 -10 -12 -6 4 -7 11 -4 17 4 7 2 8 -5 4 -6 -4 -9 -12 -6 -17 4 -5 1
-9 -4 -9 -6 0 -11 5 -11 11 0 6 -7 3 -16 -5 -19 -20 -31 -21 -15 -2 10 12 8
13 -8 9 -12 -3 -18 -9 -15 -14 3 -5 -2 -6 -11 -2 -10 3 -20 2 -24 -3 -3 -5
-17 -15 -31 -23 -20 -10 -22 -11 -12 0 6 7 12 17 12 23 0 5 -9 -1 -19 -13 -14
-16 -21 -18 -25 -9 -5 10 -7 10 -12 1 -3 -7 -12 -13 -20 -13 -9 0 -12 5 -9 10
3 6 1 10 -4 10 -6 0 -11 -9 -11 -20 0 -11 -5 -20 -11 -20 -5 0 -7 5 -4 10 3 6
-1 10 -10 10 -9 0 -13 -4 -10 -10 4 -6 -5 -10 -20 -10 -14 0 -24 -4 -21 -9 5
-8 -24 -8 -51 0 -6 2 -19 -5 -28 -16 -9 -11 -14 -15 -11 -9 3 7 0 14 -8 17 -9
4 -12 0 -9 -13 4 -16 0 -18 -31 -16 -21 2 -33 -1 -29 -6 3 -6 -3 -7 -17 -3
-19 6 -22 4 -16 -11 7 -17 6 -17 -14 1 -11 10 -20 15 -20 10 0 -4 -7 -2 -15 5
-8 6 -20 8 -27 4 -9 -6 -9 -3 1 10 12 15 12 17 0 14 -8 -2 -13 3 -11 11 2 9
-4 12 -19 8 -11 -3 -18 -3 -15 0 3 4 -4 18 -16 31 -13 14 -17 22 -9 17 9 -5
12 -4 7 3 -4 7 -16 12 -28 12 -18 0 -19 2 -7 17 8 10 9 14 2 10 -14 -9 -65 42
-56 56 3 6 1 7 -5 3 -7 -4 -12 -2 -12 5 0 7 -3 9 -7 6 -3 -4 4 -18 17 -32 13
-14 21 -25 19 -25 -3 0 -23 19 -44 42 -22 23 -33 38 -25 34 8 -4 6 -1 -5 8
-11 8 -26 21 -34 28 -12 10 -14 9 -8 -5 3 -9 1 -19 -5 -23 -6 -4 -8 -3 -4 4 3
6 0 17 -8 25 -8 8 -12 18 -8 23 4 5 -2 2 -12 -6 -18 -14 -19 -13 -14 6 5 19 2
22 -19 19 -18 -2 -23 1 -18 13 4 12 3 13 -10 2 -11 -9 -15 -9 -15 -1 0 7 -5 9
-12 5 -8 -5 -9 -2 -4 11 6 16 4 16 -11 4 -13 -11 -15 -11 -9 -1 5 9 3 13 -5
11 -29 -3 -41 2 -36 16 4 8 1 17 -5 21 -7 4 -8 3 -4 -4 4 -7 2 -12 -3 -12 -6
0 -11 5 -11 10 0 6 -7 10 -15 10 -8 0 -15 -5 -15 -12 0 -6 -6 -3 -14 7 -8 11
-20 16 -29 12 -11 -4 -14 -2 -10 9 4 10 0 12 -13 7 -10 -4 -15 -2 -11 4 3 5 0
10 -8 10 -8 0 -11 -5 -8 -11 4 -6 -1 -5 -10 3 -14 11 -17 11 -18 0 0 -8 -5 -3
-10 10 -7 17 -12 21 -22 13 -7 -6 -19 -9 -27 -7 -38 8 -59 18 -55 24 2 4 -2 8
-10 8 -8 0 -12 -4 -9 -8 2 -4 -5 -7 -16 -6 -14 1 -19 6 -15 17 5 12 4 12 -6 3
-9 -9 -17 -9 -33 -1 -20 10 -20 10 -6 -7 14 -17 14 -17 -7 -7 -28 15 -36 15
-27 0 6 -10 5 -10 -7 -1 -12 10 -18 10 -29 0 -7 -6 -10 -7 -7 -2 3 6 2 17 -3
25 -8 13 -11 13 -22 1 -11 -12 -10 -12 2 -6 13 8 13 7 1 -8 -14 -18 -26 -23
-16 -8 3 5 1 12 -5 16 -6 4 -8 11 -5 16 4 5 4 9 1 9 -3 0 -7 -3 -7 -7z m2141
-282 c0 -5 -7 -12 -16 -15 -14 -5 -15 -4 -4 9 14 17 20 19 20 6z m1574 -82
c-3 -5 -10 -7 -15 -3 -5 3 -7 10 -3 15 3 5 10 7 15 3 5 -3 7 -10 3 -15z m750
-7 c2 -4 -5 -9 -17 -9 -17 -2 -19 0 -7 7 18 12 18 12 24 2z m-5544 -72 c0 -5
-5 -10 -11 -10 -5 0 -7 5 -4 10 3 6 8 10 11 10 2 0 4 -4 4 -10z m3707 -53 c0
-8 -6 -14 -13 -14 -7 0 -10 6 -7 14 3 7 8 13 12 13 4 0 8 -6 8 -13z m-1639
-22 c-3 -3 -9 2 -12 12 -6 14 -5 15 5 6 7 -7 10 -15 7 -18z m1422 15 c0 -5 -5
-10 -11 -10 -5 0 -7 5 -4 10 3 6 8 10 11 10 2 0 4 -4 4 -10z m-1396 -16 c3 -8
2 -12 -4 -9 -6 3 -10 10 -10 16 0 14 7 11 14 -7z m2016 8 c0 -5 -7 -9 -15 -9
-8 0 -12 4 -9 9 3 4 9 8 15 8 5 0 9 -4 9 -8z m820 -114 c0 -4 -4 -8 -9 -8 -6
0 -12 4 -15 8 -3 5 1 9 9 9 8 0 15 -4 15 -9z m-2735 -110 c-25 -15 -47 -19
-39 -7 3 5 9 7 14 4 5 -3 11 -1 15 5 3 5 12 10 18 10 7 0 3 -6 -8 -12z m5078
-102 c4 -10 1 -13 -8 -9 -8 3 -12 9 -9 14 7 12 11 11 17 -5z m-7782 -529 c-10
-9 -11 -8 -5 6 3 10 9 15 12 12 3 -3 0 -11 -7 -18z m8107 -422 c-3 -3 -9 2
-12 12 -6 14 -5 15 5 6 7 -7 10 -15 7 -18z m-2303 -43 c-3 -3 -11 0 -18 7 -9
10 -8 11 6 5 10 -3 15 -9 12 -12z m-4905 -136 c0 -2 -8 -10 -17 -17 -16 -13
-17 -12 -4 4 13 16 21 21 21 13z m7140 -282 c0 -8 -19 -13 -24 -6 -3 5 1 9 9
9 8 0 15 -2 15 -3z m520 -119 c11 -13 10 -14 -4 -9 -9 3 -16 10 -16 15 0 13 6
11 20 -6z m-234 -110 c9 -8 11 -15 6 -15 -5 0 -15 7 -22 15 -7 8 -9 15 -6 15
4 0 14 -7 22 -15z m569 -284 c3 -5 2 -12 -3 -15 -5 -3 -9 1 -9 9 0 17 3 19 12
6z m-280 -30 c-3 -6 3 -14 12 -20 10 -6 14 -10 8 -10 -5 0 -18 6 -28 13 -14
11 -15 15 -5 19 19 8 20 8 13 -2z m185 -241 c0 -5 -2 -10 -4 -10 -3 0 -8 5
-11 10 -3 6 -1 10 4 10 6 0 11 -4 11 -10z m421 -157 c13 -16 12 -17 -3 -4 -10
7 -18 15 -18 17 0 8 8 3 21 -13z m-9038 -38 c-3 -9 -8 -14 -10 -11 -3 3 -2 9
2 15 9 16 15 13 8 -4z m8872 -143 c-3 -3 -11 0 -18 7 -9 10 -8 11 6 5 10 -3
15 -9 12 -12z m-9380 -832 c-3 -5 -11 -10 -16 -10 -6 0 -7 5 -4 10 3 6 11 10
16 10 6 0 7 -4 4 -10z m8522 -595 c0 -8 -4 -12 -9 -9 -5 3 -6 10 -3 15 9 13
12 11 12 -6z m-8592 -145 c-4 -6 -1 -19 6 -28 12 -16 12 -16 -5 0 -16 14 -15
38 0 38 3 0 2 -5 -1 -10z m8347 -197 c-6 -2 -9 -10 -6 -15 4 -7 2 -8 -5 -4
-13 9 -5 26 12 25 9 0 8 -2 -1 -6z m-8342 -33 c0 -5 -5 -10 -11 -10 -5 0 -7 5
-4 10 3 6 8 10 11 10 2 0 4 -4 4 -10z m7344 -1701 c-3 -5 -10 -7 -15 -3 -5 3
-7 10 -3 15 3 5 10 7 15 3 5 -3 7 -10 3 -15z m-6326 -214 c-3 -3 -9 2 -12 12
-6 14 -5 15 5 6 7 -7 10 -15 7 -18z m25 -50 c4 -8 3 -16 -1 -19 -4 -3 -9 4 -9
15 -2 23 3 25 10 4z m-233 -55 c0 -5 -2 -10 -4 -10 -3 0 -8 5 -11 10 -3 6 -1
10 4 10 6 0 11 -4 11 -10z m4520 -840 c0 -5 -5 -10 -11 -10 -5 0 -7 5 -4 10 3
6 8 10 11 10 2 0 4 -4 4 -10z m-3282 -435 c-3 -3 -9 2 -12 12 -6 14 -5 15 5 6
7 -7 10 -15 7 -18z m2666 -43 c3 -5 -1 -9 -9 -9 -8 0 -12 4 -9 9 3 4 7 8 9 8
2 0 6 -4 9 -8z m-384 -242 c0 -5 -5 -10 -11 -10 -5 0 -7 5 -4 10 3 6 8 10 11
10 2 0 4 -4 4 -10z m-646 -199 c-9 -9 -34 -9 -34 -1 0 5 9 8 20 7 10 -1 17 -3
14 -6z m-4044 -261 c0 -5 -5 -10 -11 -10 -5 0 -7 5 -4 10 3 6 8 10 11 10 2 0
4 -4 4 -10z"/>
<path d="M2546 9822 c-3 -5 1 -9 9 -9 8 0 12 4 9 9 -3 4 -7 8 -9 8 -2 0 -6 -4
-9 -8z"/>
<path d="M2720 9806 c0 -2 8 -10 18 -17 15 -13 16 -12 3 4 -13 16 -21 21 -21
13z"/>
<path d="M2763 9795 c0 -8 4 -12 9 -9 5 3 6 10 3 15 -9 13 -12 11 -12 -6z"/>
<path d="M2017 9763 c-4 -3 -7 -11 -7 -17 0 -6 5 -5 12 2 6 6 9 14 7 17 -3 3
-9 2 -12 -2z"/>
<path d="M4745 9570 c-3 -6 1 -7 9 -4 18 7 21 14 7 14 -6 0 -13 -4 -16 -10z"/>
<path d="M7230 9576 c0 -2 7 -7 16 -10 8 -3 12 -2 9 4 -6 10 -25 14 -25 6z"/>
<path d="M7060 9531 c0 -7 -5 -9 -12 -5 -7 5 -8 3 -3 -5 5 -9 10 -10 18 -2 6
6 8 14 4 18 -4 3 -7 1 -7 -6z"/>
<path d="M8146 9418 c3 -5 10 -6 15 -3 13 9 11 12 -6 12 -8 0 -12 -4 -9 -9z"/>
<path d="M8190 9400 c0 -5 5 -10 11 -10 5 0 7 5 4 10 -3 6 -8 10 -11 10 -2 0
-4 -4 -4 -10z"/>
<path d="M8380 9281 c0 -10 19 -25 25 -20 1 2 -3 10 -11 17 -8 7 -14 8 -14 3z"/>
<path d="M4233 9235 c0 -8 4 -12 9 -9 5 3 6 10 3 15 -9 13 -12 11 -12 -6z"/>
<path d="M6110 9230 c-8 -5 -10 -10 -5 -10 6 0 17 5 25 10 8 5 11 10 5 10 -5
0 -17 -5 -25 -10z"/>
<path d="M3711 9124 c0 -11 3 -14 6 -6 3 7 2 16 -1 19 -3 4 -6 -2 -5 -13z"/>
<path d="M5955 8620 c-3 -5 -1 -10 4 -10 6 0 11 5 11 10 0 6 -2 10 -4 10 -3 0
-8 -4 -11 -10z"/>
<path d="M875 8550 c3 -5 8 -10 11 -10 2 0 4 5 4 10 0 6 -5 10 -11 10 -5 0 -7
-4 -4 -10z"/>
<path d="M6154 8388 c-4 -6 -3 -8 3 -5 5 3 24 -3 42 -14 18 -11 30 -15 26 -9
-13 20 -63 41 -71 28z"/>
<path d="M8999 8273 c-13 -16 -12 -17 4 -4 9 7 17 15 17 17 0 8 -8 3 -21 -13z"/>
<path d="M6421 8213 c7 -12 15 -20 18 -17 3 2 -3 12 -13 22 -17 16 -18 16 -5
-5z"/>
<path d="M2025 8131 c-3 -5 -2 -12 3 -15 5 -3 9 1 9 9 0 17 -3 19 -12 6z"/>
<path d="M8996 7982 c-3 -5 1 -9 9 -9 8 0 12 4 9 9 -3 4 -7 8 -9 8 -2 0 -6 -4
-9 -8z"/>
<path d="M6946 7703 c-6 -14 -5 -15 5 -6 7 7 10 15 7 18 -3 3 -9 -2 -12 -12z"/>
<path d="M1635 7660 c-3 -5 -1 -10 4 -10 6 0 11 5 11 10 0 6 -2 10 -4 10 -3 0
-8 -4 -11 -10z"/>
<path d="M8976 7577 c3 -10 9 -15 12 -12 3 3 0 11 -7 18 -10 9 -11 8 -5 -6z"/>
<path d="M9415 7110 c10 -11 20 -20 23 -20 3 0 -3 9 -13 20 -10 11 -20 20 -23
20 -3 0 3 -9 13 -20z"/>
<path d="M9880 6961 c0 -6 4 -13 10 -16 6 -3 7 1 4 9 -7 18 -14 21 -14 7z"/>
<path d="M866 6793 c-6 -14 -5 -15 5 -6 7 7 10 15 7 18 -3 3 -9 -2 -12 -12z"/>
<path d="M9993 6365 c0 -8 4 -12 9 -9 5 3 6 10 3 15 -9 13 -12 11 -12 -6z"/>
<path d="M986 6338 c3 -5 10 -6 15 -3 13 9 11 12 -6 12 -8 0 -12 -4 -9 -9z"/>
<path d="M856 5873 c-6 -14 -5 -15 5 -6 7 7 10 15 7 18 -3 3 -9 -2 -12 -12z"/>
<path d="M2344 5638 c3 -10 1 -20 -4 -23 -6 -4 -10 -1 -10 6 0 7 -7 4 -16 -7
-8 -10 -13 -14 -10 -8 3 7 -1 14 -9 17 -9 4 -12 1 -9 -7 3 -8 0 -17 -7 -22 -8
-4 -10 -3 -5 4 10 16 -16 15 -33 0 -8 -7 -11 -8 -8 -3 3 6 -8 10 -26 9 -23 -1
-32 -6 -31 -17 2 -17 -16 -18 -28 -2 -4 6 -8 2 -8 -8 0 -10 -5 -15 -11 -12 -6
4 -17 -1 -25 -11 -14 -18 -14 -18 -7 0 4 13 3 17 -5 12 -7 -4 -12 -15 -13 -24
0 -11 -2 -12 -6 -4 -7 19 -23 4 -16 -16 6 -16 6 -16 -11 1 -19 18 -31 23 -21
8 3 -5 1 -12 -5 -16 -6 -4 -7 -11 -4 -17 4 -7 2 -8 -4 -4 -6 4 -9 14 -6 24 3
9 -2 5 -10 -10 -11 -19 -21 -25 -33 -21 -13 5 -15 2 -10 -11 5 -11 3 -15 -5
-10 -8 5 -9 2 -4 -11 5 -15 4 -16 -9 -5 -12 10 -15 9 -16 -6 0 -11 -3 -14 -6
-6 -2 6 -9 12 -15 12 -6 0 -8 -7 -4 -15 3 -8 1 -15 -5 -15 -6 0 -7 -6 -3 -12
5 -8 0 -7 -11 2 -17 14 -18 13 -12 -4 6 -14 4 -17 -9 -12 -12 5 -15 2 -10 -10
5 -14 4 -15 -8 -5 -12 10 -13 9 -9 -8 3 -13 1 -21 -6 -21 -7 0 -9 5 -5 12 5 7
3 8 -5 4 -7 -5 -10 -14 -7 -22 3 -8 -1 -14 -8 -14 -7 0 -20 -8 -27 -17 -13
-17 -13 -17 6 -3 19 14 19 14 6 -3 -8 -10 -21 -15 -29 -12 -12 4 -12 3 -3 -9
9 -11 9 -16 0 -22 -8 -5 -9 -3 -4 7 7 11 6 12 -7 2 -8 -7 -17 -12 -19 -10 -2
1 -1 -2 3 -7 14 -17 8 -28 -11 -23 -13 3 -18 0 -16 -12 1 -9 -5 -22 -14 -29
-12 -10 -12 -12 -1 -6 8 5 -2 -9 -22 -30 -30 -31 -36 -42 -27 -53 7 -7 9 -16
5 -20 -3 -3 -6 -2 -6 4 0 5 -6 10 -14 10 -9 0 -13 -8 -10 -24 3 -17 -1 -26
-18 -33 -21 -8 -21 -9 -3 -10 18 -1 17 -2 -5 -15 -15 -9 -19 -14 -10 -15 10 0
11 -3 4 -8 -6 -4 -10 -15 -9 -24 2 -9 -3 -22 -11 -29 -8 -6 -11 -15 -8 -20 3
-5 -2 -12 -10 -15 -9 -3 -13 -11 -10 -16 4 -6 -4 -20 -17 -30 -13 -11 -18 -17
-11 -13 17 9 11 -25 -10 -57 -13 -19 -14 -28 -5 -37 9 -9 6 -13 -11 -17 -12
-4 -22 -11 -22 -16 0 -6 8 -7 18 -4 14 5 14 4 -2 -9 -14 -11 -16 -15 -5 -15
12 0 12 -2 0 -9 -8 -5 -11 -16 -8 -25 4 -9 2 -16 -4 -16 -6 0 -7 -5 -4 -10 4
-6 11 -8 16 -5 15 10 10 -2 -8 -16 -14 -12 -16 -12 -8 0 5 10 4 12 -4 7 -9 -6
-9 -11 1 -24 10 -12 10 -14 1 -8 -7 4 -13 3 -13 -3 0 -5 6 -11 13 -14 9 -3 9
-8 -2 -18 -12 -12 -13 -12 -6 1 6 12 5 12 -4 4 -10 -9 -10 -17 -1 -33 6 -12 7
-21 3 -20 -20 3 -27 -2 -13 -11 11 -7 11 -10 2 -10 -7 0 -10 -5 -7 -10 4 -6
11 -7 17 -4 5 4 2 -5 -7 -20 -10 -14 -13 -26 -8 -26 5 0 9 -9 9 -19 0 -11 -4
-17 -8 -15 -4 3 -8 0 -8 -5 0 -6 5 -11 11 -11 8 0 7 -6 -2 -17 -11 -13 -11
-17 -1 -21 10 -3 10 -7 1 -19 -10 -12 -10 -16 1 -23 9 -6 11 -13 4 -22 -14
-19 0 -93 15 -83 8 5 11 -14 11 -63 -1 -25 3 -32 12 -26 10 6 9 3 -1 -9 -10
-13 -10 -17 -1 -17 9 0 9 -4 -1 -17 -9 -11 -10 -14 -2 -9 9 5 12 -1 9 -23 -2
-17 1 -28 6 -25 5 3 12 -3 15 -15 3 -11 8 -19 12 -17 3 2 7 -10 7 -27 1 -17 6
-33 13 -35 6 -2 11 -13 11 -24 0 -12 8 -27 18 -35 9 -8 11 -12 5 -8 -9 4 -11
1 -7 -9 3 -9 10 -13 15 -10 5 3 10 -2 10 -10 1 -9 3 -20 4 -26 1 -5 3 -14 4
-20 0 -5 6 -10 12 -10 8 0 7 6 -2 18 -13 15 -12 16 4 3 10 -8 16 -20 13 -28
-3 -7 1 -13 11 -13 13 0 14 -2 2 -17 -8 -9 -9 -14 -4 -11 10 6 42 -21 38 -32
-1 -3 5 -4 12 -4 8 1 13 -2 10 -6 -3 -5 -2 -10 2 -13 5 -2 1 -2 -7 0 -10 2 -8
-2 4 -12 11 -8 23 -15 28 -15 4 0 8 -5 8 -11 0 -16 26 -39 36 -31 5 4 2 -2 -6
-12 -8 -11 -10 -17 -5 -15 11 6 46 -26 38 -34 -3 -3 4 -3 16 0 15 4 21 1 21
-11 0 -9 5 -16 11 -16 5 0 7 -4 4 -10 -3 -5 0 -7 8 -4 8 3 28 -9 46 -25 18
-17 38 -28 47 -24 7 3 14 0 14 -6 0 -6 5 -11 11 -11 5 0 7 5 3 12 -5 7 -3 8 5
4 7 -5 10 -14 7 -21 -3 -10 7 -13 40 -11 35 1 43 -2 39 -14 -4 -11 -2 -11 8 2
9 12 18 14 30 7 11 -7 17 -6 17 1 0 5 5 10 11 10 5 0 7 -6 4 -12 -4 -7 1 -4 9
6 15 18 21 15 16 -9 -1 -5 2 -6 7 -2 4 5 8 14 8 20 0 7 9 11 19 9 10 -2 15 1
12 6 -3 6 2 9 11 8 9 -2 27 9 40 23 12 14 23 20 23 14 0 -13 55 39 64 60 3 8
8 7 15 -3 9 -12 10 -9 7 12 -5 29 8 47 18 26 4 -7 4 -3 2 10 -4 18 -1 22 11
18 13 -5 14 -4 3 9 -12 14 -7 20 15 15 5 -1 7 2 3 6 -4 4 0 13 10 21 16 12 16
13 -3 7 -17 -5 -18 -4 -5 8 9 7 15 25 15 40 -1 21 2 25 12 16 8 -6 16 -8 20
-4 3 3 1 6 -5 6 -7 0 -12 5 -12 11 0 5 6 7 13 3 7 -5 6 0 -3 11 -8 10 -10 16
-3 12 8 -5 16 7 25 35 6 24 16 46 20 49 4 3 9 17 10 32 2 18 7 26 16 22 7 -2
11 -1 8 4 -3 5 1 12 10 15 13 5 14 9 4 21 -9 11 -9 15 -1 15 7 0 9 5 5 13 -5
7 0 6 11 -3 10 -8 16 -10 12 -3 -4 6 -3 14 3 18 5 3 10 12 10 18 0 7 -4 6 -10
-3 -5 -8 -10 -11 -10 -6 0 5 12 19 26 32 14 13 22 29 19 34 -3 6 0 10 8 10 8
0 18 7 21 16 6 15 4 15 -11 3 -16 -13 -17 -12 -4 4 7 9 20 17 27 17 8 0 14 5
14 11 0 5 -6 7 -12 3 -10 -6 -10 -5 -1 8 7 8 12 17 10 19 -1 2 0 3 2 2 7 -4
29 22 24 30 -2 4 1 7 6 7 6 0 11 6 11 14 0 7 9 16 21 19 18 5 19 8 8 29 -11
21 -11 22 4 9 12 -9 17 -10 17 -2 0 7 5 9 12 5 7 -4 8 -3 4 5 -4 6 -13 9 -19
5 -7 -3 -4 1 5 9 10 8 15 17 11 20 -3 4 1 7 10 7 9 0 19 5 23 12 5 7 3 8 -5 3
-10 -5 -9 -2 0 13 7 12 17 18 23 15 5 -4 7 1 3 11 -5 14 -3 17 8 12 8 -3 15
-1 15 4 0 6 -5 10 -12 10 -13 0 -2 14 13 16 5 1 12 2 15 3 4 0 1 7 -5 15 -9
11 -8 14 6 12 10 0 18 6 18 14 0 8 6 19 13 23 6 4 12 15 12 23 0 8 4 13 9 9 5
-3 13 0 17 6 4 7 3 9 -3 6 -6 -4 -13 0 -16 8 -4 10 -1 12 10 8 12 -5 15 -2 10
10 -4 12 -1 17 11 17 15 0 15 2 2 10 -13 9 -13 10 0 11 8 1 19 1 23 0 5 -1 6
3 2 9 -3 6 -12 8 -18 4 -7 -3 2 6 18 21 17 14 25 24 18 21 -6 -4 -14 -2 -18 4
-3 5 0 10 8 10 8 0 17 7 21 15 3 8 0 15 -7 15 -9 0 -9 2 0 8 7 5 14 20 15 35
1 15 8 27 14 27 7 0 15 7 18 16 10 25 7 29 -7 9 -11 -14 -16 -15 -22 -5 -5 8
-4 11 1 7 6 -3 15 7 21 24 6 16 7 29 2 29 -5 0 -9 5 -9 11 0 5 4 8 9 5 5 -3
11 5 13 19 3 13 2 22 -3 20 -4 -3 -11 0 -15 6 -5 8 -3 9 6 4 10 -6 12 -4 6 10
-5 14 -4 16 7 7 10 -9 14 -8 14 3 0 8 -4 15 -8 15 -4 0 -9 7 -12 14 -4 10 -1
13 9 9 7 -3 14 0 14 6 0 6 -4 11 -9 11 -5 0 -8 8 -6 18 2 9 4 17 6 17 1 0 3
10 4 22 1 12 -1 20 -6 17 -4 -2 -6 -12 -3 -22 4 -12 3 -13 -3 -4 -5 7 -8 32
-7 57 2 32 -1 43 -9 38 -7 -4 -6 0 1 10 12 14 12 19 -2 32 -21 21 -21 31 0 15
13 -12 14 -10 3 13 -7 15 -17 27 -22 27 -5 0 -4 6 2 14 7 9 8 17 2 20 -5 3
-11 0 -13 -6 -3 -7 -7 -1 -10 14 -3 15 -2 25 3 23 4 -3 5 4 2 16 -5 16 -8 18
-15 7 -7 -9 -8 -6 -5 10 5 20 3 22 -11 10 -9 -7 -14 -8 -10 -4 4 5 2 16 -5 24
-6 9 -7 13 -2 10 6 -4 11 1 11 11 0 12 -6 17 -18 13 -13 -3 -18 1 -18 16 0 11
-6 23 -12 25 -10 4 -9 8 2 17 12 9 11 10 -6 5 -22 -6 -40 17 -29 35 3 4 -3 6
-14 3 -12 -3 -20 2 -24 16 -3 12 -13 21 -25 21 -11 0 -26 8 -33 18 -11 14 -11
15 1 5 8 -7 18 -13 23 -13 5 0 -1 8 -14 19 -13 10 -30 16 -38 13 -9 -3 -12 -1
-7 6 4 8 2 10 -7 6 -8 -3 -21 3 -28 14 -10 13 -24 19 -48 17 -31 -2 -32 -1
-15 12 16 12 15 13 -14 7 -19 -4 -32 -2 -32 3 0 12 -49 11 -67 0 -8 -5 -13 -4
-13 2 0 10 14 15 33 12 5 -1 6 3 2 9 -4 6 -18 5 -41 -5 -19 -8 -32 -10 -29 -5
4 6 -1 13 -9 16 -9 3 -13 11 -9 17 3 6 1 7 -6 3 -9 -6 -9 -11 1 -24 12 -14 10
-14 -10 -3 -13 7 -29 10 -37 8 -7 -3 -18 0 -25 6 -10 9 -11 9 -6 0 11 -20 -12
-15 -24 5 -11 16 -11 16 -6 0z m341 -78 c3 -5 1 -10 -4 -10 -6 0 -11 5 -11 10
0 6 2 10 4 10 3 0 8 -4 11 -10z m-460 -572 c4 4 4 -4 0 -17 -6 -21 -5 -22 8
-10 8 8 13 17 10 22 -8 14 5 7 18 -10 12 -15 12 -16 -1 -8 -8 4 -12 4 -7 0 10
-12 38 -15 31 -4 -3 5 0 9 5 9 6 0 11 -4 11 -10 0 -5 12 -10 26 -10 24 0 25
-2 13 -17 -8 -10 -9 -14 -2 -10 7 4 21 -3 34 -15 12 -13 19 -17 15 -11 -5 9
-2 11 9 7 14 -6 14 -8 -2 -21 -10 -8 -13 -12 -6 -8 14 7 32 -24 25 -44 -3 -8
0 -11 7 -7 6 4 11 0 11 -9 0 -10 5 -13 12 -9 7 4 8 3 4 -5 -6 -9 -11 -9 -21
-1 -17 14 -15 -11 3 -33 10 -12 9 -16 -4 -21 -9 -4 -14 -9 -11 -13 4 -3 1 -13
-6 -22 -11 -14 -10 -14 5 -2 10 7 15 18 11 24 -3 6 -1 7 6 3 9 -6 9 -11 1 -21
-7 -8 -9 -18 -6 -24 3 -5 -4 -7 -16 -4 -16 3 -19 2 -10 -4 15 -12 5 -43 -14
-43 -8 0 -14 -8 -14 -17 0 -15 -2 -16 -10 -3 -8 12 -10 11 -10 -7 0 -17 -5
-20 -22 -16 -19 4 -20 3 -8 -6 8 -6 12 -11 8 -11 -3 0 -14 -3 -24 -7 -10 -4
-15 -2 -11 4 3 5 0 10 -8 10 -8 0 -11 -5 -8 -10 3 -6 -7 -8 -25 -5 -22 3 -29
1 -24 -7 4 -6 -1 -2 -10 8 -16 17 -22 16 -19 -5 0 -4 -6 -5 -14 -2 -8 4 -15
11 -15 16 0 7 -5 6 -14 -1 -11 -9 -15 -8 -20 4 -4 11 -2 14 6 9 7 -4 8 -3 4 5
-6 9 -11 9 -21 1 -11 -9 -13 -8 -10 9 2 13 -1 18 -9 15 -16 -6 -49 24 -41 37
4 5 2 9 -3 9 -5 0 -13 10 -17 23 -4 12 -9 29 -12 37 -2 8 -4 24 -4 35 0 10 -5
26 -12 34 -9 12 -9 13 1 7 7 -4 12 -2 12 7 0 8 7 18 16 21 12 5 14 9 5 20 -9
10 -6 19 9 37 l21 24 -17 -30 -16 -30 21 25 c11 14 21 30 21 37 0 7 7 10 15 7
11 -5 13 -2 8 12 -4 12 -3 15 5 10 8 -4 12 0 12 10 0 16 1 16 15 -2 8 -10 14
-13 13 -5 -2 7 7 15 20 17 16 3 21 0 16 -8 -5 -10 -4 -10 6 -1 11 10 11 15 -1
30 -12 16 -12 17 2 6 9 -7 19 -9 24 -5z m220 -216 c-3 -3 -11 0 -18 7 -9 10
-8 11 6 5 10 -3 15 -9 12 -12z m-935 4 c0 -2 -7 -7 -16 -10 -8 -3 -12 -2 -9 4
6 10 25 14 25 6z m-60 -558 c0 -4 -4 -8 -9 -8 -6 0 -12 4 -15 8 -3 5 1 9 9 9
8 0 15 -4 15 -9z m45 -197 c3 -5 0 -13 -6 -17 -7 -4 -9 -3 -5 4 3 5 0 13 -6
15 -9 4 -10 6 -1 6 6 1 14 -3 18 -8z m958 -236 c-3 -9 -8 -14 -10 -11 -3 3 -2
9 2 15 9 16 15 13 8 -4z m-663 -245 c8 -5 11 -10 5 -10 -5 0 -17 5 -25 10 -8
5 -10 10 -5 10 6 0 17 -5 25 -10z"/>
<path d="M4823 5558 c3 -9 -1 -19 -9 -22 -8 -3 -12 -2 -9 3 3 5 0 13 -6 17 -8
4 -9 3 -5 -4 4 -7 2 -12 -5 -12 -7 0 -8 -5 -3 -13 5 -7 1 -4 -8 6 -16 17 -22
16 -20 -4 1 -3 -5 -6 -13 -6 -8 0 -11 5 -8 11 3 6 1 6 -7 -1 -7 -6 -19 -9 -28
-5 -11 4 -14 1 -9 -10 4 -12 1 -14 -15 -10 -14 3 -19 1 -14 -6 4 -7 3 -12 -3
-12 -5 0 -11 6 -14 13 -3 9 -7 9 -19 0 -8 -7 -18 -10 -22 -6 -4 4 -4 -1 0 -11
6 -16 4 -18 -14 -14 -12 4 -20 2 -16 -3 3 -5 0 -9 -6 -9 -6 0 -8 -5 -4 -12 5
-9 2 -9 -9 1 -12 9 -17 10 -17 2 0 -7 -3 -10 -8 -7 -4 2 -16 -2 -27 -10 -10
-8 -14 -14 -9 -14 6 0 15 5 21 11 8 8 13 7 18 -3 5 -7 5 -10 1 -6 -4 3 -19 0
-33 -7 -15 -8 -30 -12 -35 -9 -4 3 -5 -2 -2 -11 5 -11 0 -18 -15 -22 -13 -3
-21 -13 -21 -27 0 -17 -2 -18 -10 -6 -8 13 -10 13 -10 -2 0 -10 -9 -22 -21
-28 -12 -7 -18 -18 -15 -26 3 -7 2 -13 -2 -11 -4 1 -8 -2 -9 -7 -1 -5 -7 -13
-15 -17 -11 -7 -10 -11 2 -20 12 -8 10 -9 -7 -4 -18 5 -22 3 -17 -9 4 -9 1
-16 -6 -16 -7 0 -10 -7 -6 -16 5 -12 2 -15 -10 -10 -14 5 -15 4 -5 -8 10 -11
8 -18 -9 -34 -15 -13 -18 -22 -10 -27 8 -5 8 -10 -1 -21 -6 -7 -16 -11 -22 -7
-6 3 -7 1 -3 -6 4 -6 12 -9 17 -6 5 3 6 -1 3 -9 -3 -9 -11 -13 -16 -10 -6 4
-4 -4 3 -17 11 -21 11 -23 -3 -11 -13 10 -18 10 -24 1 -4 -7 -3 -9 3 -6 6 4
13 -2 16 -13 3 -11 1 -18 -3 -15 -5 3 -11 1 -15 -5 -3 -5 -1 -10 6 -10 9 0 9
-3 0 -14 -8 -10 -9 -16 -1 -21 5 -3 10 -11 10 -16 0 -6 -4 -8 -8 -5 -5 3 -9
-1 -9 -9 0 -8 5 -15 11 -15 6 0 4 -5 -4 -10 -13 -9 -13 -10 0 -10 13 0 13 -1
0 -10 -12 -8 -12 -10 -1 -10 11 0 11 -3 0 -16 -10 -13 -10 -17 0 -24 9 -5 10
-9 2 -14 -15 -10 -3 -28 12 -19 7 3 3 -4 -8 -17 -11 -13 -14 -20 -7 -16 15 9
16 -10 1 -19 -7 -5 -4 -14 8 -28 12 -14 13 -18 3 -12 -12 7 -13 6 -3 -7 7 -8
9 -19 5 -24 -4 -4 2 -2 12 6 18 14 19 14 6 -9 -11 -22 -11 -23 6 -17 15 6 17
5 7 -5 -7 -7 -13 -17 -13 -22 0 -4 6 -5 13 -1 9 6 9 4 -1 -8 -9 -11 -10 -18
-2 -23 6 -3 8 -10 5 -15 -3 -5 0 -12 6 -16 8 -5 9 -3 4 6 -5 9 -4 11 3 6 7 -4
12 -18 12 -32 0 -13 5 -24 11 -24 9 0 9 -4 0 -13 -8 -11 -7 -18 7 -31 10 -9
22 -13 27 -9 4 5 3 -2 -4 -14 -8 -16 -8 -24 1 -29 7 -5 9 -2 4 7 -4 8 1 3 12
-10 11 -14 18 -30 15 -37 -2 -7 1 -15 8 -20 8 -5 10 -3 4 6 -5 8 -4 11 3 7 5
-4 8 -17 5 -30 -3 -16 -2 -18 5 -9 7 11 10 10 16 -3 9 -24 8 -27 -6 -19 -7 4
-8 3 -4 -4 4 -6 13 -9 22 -5 9 3 14 0 12 -8 -2 -8 2 -13 8 -12 7 1 10 -6 7
-16 -5 -18 11 -36 32 -36 6 0 10 -4 10 -10 2 -22 17 -55 26 -55 6 0 7 5 3 12
-4 7 -3 8 5 4 9 -6 9 -11 -1 -24 -10 -12 -10 -14 0 -8 7 4 12 1 12 -9 0 -9 4
-14 9 -11 9 6 24 -19 25 -43 1 -8 8 -16 16 -18 13 -4 13 -3 0 6 -8 6 -10 11
-4 11 6 0 18 -8 25 -17 10 -11 10 -14 2 -9 -23 13 -14 -3 17 -33 21 -20 27
-31 18 -34 -9 -4 -8 -6 3 -6 9 -1 23 -9 30 -18 10 -11 10 -14 2 -9 -7 4 -13 2
-13 -3 0 -6 7 -11 15 -11 8 0 15 -7 15 -16 0 -8 7 -22 15 -31 8 -8 12 -19 9
-25 -4 -7 -2 -8 4 -4 7 4 12 1 12 -8 0 -9 5 -16 11 -16 5 0 7 5 3 12 -4 7 -3
8 5 4 6 -4 8 -12 5 -18 -4 -6 -2 -13 4 -17 7 -4 13 -17 15 -29 2 -12 7 -25 12
-29 4 -5 5 -3 1 4 -3 6 -2 14 3 17 5 4 8 -5 6 -20 -2 -18 2 -24 11 -20 7 3 16
0 20 -6 4 -6 3 -8 -4 -4 -6 3 -13 2 -17 -4 -3 -5 3 -10 13 -10 15 0 19 -5 15
-20 -3 -11 0 -20 6 -20 6 0 11 -10 11 -21 0 -17 3 -19 13 -10 11 8 13 5 9 -18
-3 -23 1 -29 19 -34 19 -5 20 -8 9 -21 -8 -11 -9 -16 -1 -16 6 0 11 -13 11
-30 0 -24 4 -30 21 -30 11 0 17 -5 14 -10 -4 -6 -12 -7 -18 -3 -7 3 -4 -3 6
-14 9 -11 14 -23 10 -26 -3 -4 2 -7 13 -7 16 0 17 -2 4 -10 -12 -8 -10 -10 10
-11 23 0 23 -1 5 -9 -19 -8 -19 -9 3 -9 12 -1 22 -6 22 -12 0 -5 -4 -7 -10 -4
-6 3 -7 -1 -4 -9 3 -9 10 -13 15 -10 5 3 9 0 9 -6 0 -6 5 -8 10 -5 6 4 10 3 9
-2 -4 -22 2 -43 11 -38 6 3 10 1 10 -4 0 -6 7 -11 16 -11 9 0 12 -5 8 -12 -5
-8 -2 -9 9 -5 9 3 19 1 23 -5 4 -7 3 -8 -4 -4 -7 4 -12 2 -12 -3 0 -6 7 -11
15 -11 9 0 25 -9 37 -19 11 -11 27 -17 36 -14 10 4 13 2 8 -5 -5 -8 -1 -10 10
-5 13 5 15 3 9 -8 -8 -12 -6 -12 8 0 11 9 17 10 17 2 0 -6 5 -11 11 -11 5 0 8
3 6 8 -6 9 65 8 81 -2 7 -4 12 -2 12 6 0 10 3 9 11 -2 8 -12 12 -12 16 -2 4
10 8 10 21 0 12 -10 14 -10 8 0 -4 7 -1 12 8 12 9 0 16 5 16 10 0 6 9 10 21
10 11 0 18 4 15 9 -4 5 4 7 16 4 19 -4 20 -3 8 6 -10 7 -11 11 -2 11 6 0 14
-1 17 -2 2 -2 12 7 20 20 9 12 22 22 28 22 7 0 6 -4 -3 -11 -13 -9 -13 -10 0
-6 8 2 14 11 12 20 -2 11 2 15 11 11 8 -3 23 5 33 19 11 13 28 29 39 36 19 11
19 12 -3 5 -23 -6 -24 -6 -5 13 12 12 21 15 25 9 5 -7 8 -4 8 7 0 10 4 15 10
12 5 -3 12 6 16 20 3 13 10 22 16 19 5 -3 8 2 6 12 -2 11 7 23 22 31 14 7 19
13 12 13 -10 0 -10 3 0 14 7 8 18 11 23 8 6 -3 4 1 -2 10 -14 16 -8 29 11 22
7 -3 12 5 13 18 1 12 8 27 16 33 8 5 12 15 10 22 -2 6 1 15 8 19 8 5 9 3 4 -6
-5 -9 -4 -11 4 -6 9 6 9 11 0 22 -8 10 -8 14 0 14 6 0 11 5 11 11 0 5 -5 7
-12 3 -7 -4 -8 -3 -4 5 5 8 12 9 20 2 9 -8 12 -3 12 17 -1 17 4 26 12 24 10
-2 10 2 2 18 -9 17 -8 20 7 20 15 0 16 2 3 10 -13 8 -13 10 2 10 9 0 20 5 24
12 4 6 3 8 -4 4 -7 -4 -10 1 -9 14 1 11 4 20 8 20 4 0 12 14 18 31 10 28 9 30
-6 18 -15 -13 -15 -12 -5 7 6 12 8 25 4 30 -4 5 2 2 12 -6 18 -14 19 -14 8 7
-15 27 -15 33 -1 33 5 0 7 -4 4 -10 -3 -5 -1 -10 4 -10 12 0 14 13 4 24 -10
10 -11 46 -1 40 11 -7 10 3 -4 29 -11 21 -10 21 7 7 16 -13 18 -13 10 0 -5 8
-8 29 -7 47 2 20 -2 33 -9 33 -7 0 -9 3 -6 6 4 4 12 2 19 -4 10 -8 13 -4 14
14 1 13 -2 24 -8 24 -5 0 -6 -4 -3 -10 3 -6 -1 -7 -10 -3 -12 4 -13 8 -5 13 8
5 9 13 4 21 -6 11 -4 11 10 0 16 -13 16 -12 5 12 -10 21 -9 30 2 44 9 11 10
14 2 9 -8 -4 -13 -1 -13 9 0 10 -5 14 -12 9 -10 -5 -10 -4 -1 6 10 11 15 11
30 -1 16 -12 17 -12 6 2 -7 9 -9 19 -5 23 4 5 0 6 -8 4 -9 -1 -17 2 -18 7 -1
6 2 10 7 10 19 0 21 13 4 26 -14 12 -16 12 -8 0 6 -10 4 -12 -4 -6 -9 5 -10
10 -2 18 15 15 14 30 -1 21 -9 -5 -9 -2 1 9 11 14 11 17 0 17 -11 0 -11 2 1
10 13 9 13 10 0 10 -13 0 -13 1 0 10 8 5 10 10 4 10 -7 0 -14 7 -18 15 -3 8
-2 14 2 12 4 -1 7 2 7 8 0 5 -5 9 -10 7 -15 -3 -17 41 -2 50 8 5 5 8 -8 8 -17
0 -17 2 -5 10 12 8 12 10 -5 10 -17 0 -17 2 -5 10 13 9 13 10 0 10 -13 0 -13
1 0 10 12 8 12 10 1 10 -10 0 -11 3 -3 13 9 10 4 22 -18 49 -22 26 -26 38 -17
47 8 8 8 11 -1 11 -7 0 -12 8 -12 18 0 10 -6 27 -14 38 -11 14 -12 22 -3 33
10 12 9 12 -10 2 -18 -9 -22 -9 -17 2 3 8 -2 20 -11 27 -11 10 -13 16 -4 26 9
11 7 15 -6 20 -12 5 -13 9 -5 14 9 6 6 10 -8 14 -11 4 -23 14 -26 23 -5 13 -4
14 8 4 13 -11 13 -9 3 13 -7 14 -20 26 -31 26 -16 0 -17 2 -5 17 12 14 12 16
0 8 -11 -6 -13 -4 -8 9 5 11 3 15 -5 10 -8 -5 -9 -2 -5 10 6 14 3 17 -8 12
-12 -4 -19 3 -27 24 -5 17 -14 30 -20 30 -6 0 -7 7 -4 16 4 11 2 15 -8 11 -11
-4 -13 -1 -9 10 4 11 2 14 -5 9 -7 -4 -12 -2 -12 4 0 6 -5 8 -12 4 -10 -6 -10
-4 0 8 10 13 10 17 -3 22 -9 3 -13 10 -10 16 9 15 -2 12 -19 -6 -9 -8 -16 -11
-16 -5 0 5 5 13 10 16 7 4 3 14 -9 24 -11 10 -17 21 -13 25 4 4 2 7 -3 6 -20
-4 -36 0 -31 9 3 4 -4 17 -17 27 -21 19 -21 19 -7 -1 14 -19 14 -20 -6 -2 -11
9 -23 16 -25 15 -2 -2 2 2 9 8 10 9 10 13 -3 18 -9 3 -13 2 -10 -4 3 -6 1 -10
-4 -10 -11 0 -15 15 -12 34 1 5 -5 3 -14 -4 -13 -11 -15 -10 -9 6 4 10 4 16
-1 12 -4 -4 -15 1 -24 10 -9 10 -12 13 -8 6 4 -7 3 -15 -3 -19 -6 -4 -10 -3
-9 2 4 15 -13 43 -22 37 -5 -3 -9 0 -9 7 0 7 -3 9 -6 6 -10 -9 -46 12 -39 23
3 6 -1 7 -10 4 -8 -4 -22 -1 -30 6 -8 6 -20 8 -27 4 -9 -5 -8 -2 2 12 8 10 11
16 6 12 -5 -4 -17 -3 -27 3 -14 7 -18 6 -15 -3 1 -7 1 -10 -1 -5 -3 4 -9 5
-14 2 -5 -4 -6 1 -3 9 4 10 0 13 -14 9 -10 -2 -26 2 -34 11 -12 11 -18 12 -28
3 -9 -8 -11 -8 -7 -1 9 15 -18 25 -31 12 -6 -6 -12 -6 -17 3 -6 8 -4 10 5 4 8
-5 11 -4 7 3 -9 13 -36 9 -46 -7 -6 -10 -10 -9 -15 4 -5 15 -9 15 -23 4 -15
-12 -16 -12 -10 3 7 21 -8 34 -20 16 -4 -7 -18 -14 -30 -14 -13 -1 -20 3 -17
7 3 5 9 7 14 4 5 -3 11 -2 14 3 2 4 -8 8 -23 7 -17 0 -27 -5 -24 -11 5 -15
-49 -6 -60 10 -6 7 -7 5 -4 -6z m167 -693 c-11 -13 -10 -14 4 -9 9 3 16 11 16
16 0 6 8 4 17 -3 10 -8 14 -9 10 -2 -5 8 -1 11 12 10 14 -1 17 -5 10 -13 -7
-8 -6 -15 2 -20 7 -4 9 -3 6 3 -10 17 22 24 43 10 11 -6 20 -15 20 -20 0 -4 8
-7 18 -5 11 2 18 -4 20 -18 2 -13 13 -25 25 -28 17 -5 19 -8 9 -15 -11 -7 -11
-9 2 -14 9 -4 16 -1 16 5 0 6 3 8 6 5 4 -4 1 -13 -5 -21 -9 -11 -9 -16 0 -22
8 -5 9 -3 4 6 -5 8 -4 11 2 7 6 -4 9 -20 7 -37 -2 -18 0 -28 6 -25 9 6 7 -17
-5 -47 -5 -11 -3 -18 5 -18 7 0 2 -9 -11 -20 -13 -10 -18 -19 -11 -20 6 0 12
5 12 11 0 5 5 7 11 4 6 -5 4 -12 -8 -20 -10 -7 -21 -11 -24 -9 -4 2 -6 -4 -5
-14 0 -9 -4 -16 -11 -15 -7 2 -10 -4 -6 -13 4 -10 -2 -17 -16 -21 -20 -5 -26
-15 -22 -37 1 -5 -4 -4 -13 3 -11 9 -16 9 -22 0 -5 -8 -3 -10 7 -4 8 5 10 4 6
0 -9 -11 -39 -16 -33 -6 3 4 -4 7 -14 7 -14 0 -16 -4 -9 -12 7 -8 6 -15 -2
-20 -7 -4 -9 -3 -6 3 4 6 0 14 -9 17 -21 8 -24 8 -24 -5 0 -5 4 -8 8 -5 5 3 9
-1 9 -9 0 -11 -4 -12 -14 -4 -7 6 -20 8 -29 5 -14 -6 -15 -4 -4 9 11 13 11 16
-1 13 -8 -2 -17 -7 -21 -13 -5 -6 -8 -5 -8 4 0 8 -6 11 -16 7 -13 -5 -14 -3
-6 7 8 10 6 13 -8 13 -10 0 -16 -4 -14 -8 9 -15 -6 -8 -31 14 -14 12 -25 31
-25 41 0 11 -3 17 -7 14 -3 -4 -15 0 -25 9 -13 12 -15 21 -7 30 7 9 6 14 -2
20 -7 4 -9 3 -6 -3 3 -5 0 -10 -8 -10 -10 0 -11 5 -4 18 11 22 12 32 1 25 -7
-4 -8 16 -3 72 1 7 6 10 13 6 7 -5 8 -3 3 7 -16 25 -13 49 6 49 13 0 16 5 12
17 -5 12 -3 14 7 8 10 -6 12 -4 7 8 -4 10 -2 16 6 14 7 -1 11 6 9 16 -3 19 14
23 21 5 3 -7 6 -2 7 12 1 14 4 19 7 11 5 -11 7 -11 14 0 8 12 11 11 20 -1 9
-12 10 -11 6 7 -3 13 0 26 5 30 6 3 8 1 4 -5 -3 -6 -2 -13 4 -17 5 -3 10 1 10
10 0 9 5 13 10 10 6 -3 10 -1 10 6 0 7 3 9 6 6 4 -4 1 -13 -6 -22z m865 -96
c11 -16 1 -19 -13 -3 -7 8 -8 14 -3 14 5 0 13 -5 16 -11z m-1588 -55 c-3 -3
-12 -4 -19 -1 -8 3 -5 6 6 6 11 1 17 -2 13 -5z m1648 -74 c3 -5 2 -10 -4 -10
-5 0 -13 5 -16 10 -3 6 -2 10 4 10 5 0 13 -4 16 -10z m-301 -1289 c3 -5 -2
-15 -12 -22 -15 -12 -16 -12 -5 2 7 9 10 19 6 22 -3 4 -4 7 0 7 3 0 8 -4 11
-9z m-433 -118 c13 -16 12 -17 -3 -4 -10 7 -18 15 -18 17 0 8 8 3 21 -13z"/>
<path d="M5090 4856 c0 -2 8 -10 18 -17 15 -13 16 -12 3 4 -13 16 -21 21 -21
13z"/>
<path d="M5150 5520 c0 -5 5 -10 11 -10 5 0 7 5 4 10 -3 6 -8 10 -11 10 -2 0
-4 -4 -4 -10z"/>
<path d="M4280 5150 c-9 -6 -10 -10 -3 -10 6 0 15 5 18 10 8 12 4 12 -15 0z"/>
<path d="M744 5120 c2 -16 20 -14 24 2 3 10 2 10 -6 -1 -7 -9 -11 -10 -15 -2
-4 7 -5 8 -3 1z"/>
<path d="M5696 5087 c3 -10 9 -15 12 -12 3 3 0 11 -7 18 -10 9 -11 8 -5 -6z"/>
<path d="M1536 4948 c3 -5 10 -6 15 -3 13 9 11 12 -6 12 -8 0 -12 -4 -9 -9z"/>
<path d="M8766 4593 c-6 -14 -5 -15 5 -6 7 7 10 15 7 18 -3 3 -9 -2 -12 -12z"/>
<path d="M5940 4520 c0 -5 5 -10 11 -10 5 0 7 5 4 10 -3 6 -8 10 -11 10 -2 0
-4 -4 -4 -10z"/>
<path d="M755 4360 c-3 -5 -1 -10 4 -10 6 0 11 5 11 10 0 6 -2 10 -4 10 -3 0
-8 -4 -11 -10z"/>
<path d="M8640 4355 c-7 -9 -11 -17 -9 -20 3 -2 10 5 17 15 14 24 10 26 -8 5z"/>
<path d="M4480 4200 c-9 -6 -10 -10 -3 -10 6 0 15 5 18 10 8 12 4 12 -15 0z"/>
<path d="M836 3993 c-6 -14 -5 -15 5 -6 7 7 10 15 7 18 -3 3 -9 -2 -12 -12z"/>
<path d="M576 3905 c4 -8 11 -15 16 -15 6 0 5 6 -2 15 -7 8 -14 15 -16 15 -2
0 -1 -7 2 -15z"/>
<path d="M8296 3668 c3 -5 10 -6 15 -3 13 9 11 12 -6 12 -8 0 -12 -4 -9 -9z"/>
<path d="M4895 3570 c-3 -6 1 -7 9 -4 18 7 21 14 7 14 -6 0 -13 -4 -16 -10z"/>
<path d="M726 3547 c3 -10 9 -15 12 -12 3 3 0 11 -7 18 -10 9 -11 8 -5 -6z"/>
<path d="M1078 3463 c7 -3 16 -2 19 1 4 3 -2 6 -13 5 -11 0 -14 -3 -6 -6z"/>
<path d="M826 3387 c3 -10 9 -15 12 -12 3 3 0 11 -7 18 -10 9 -11 8 -5 -6z"/>
<path d="M8010 3200 c-8 -5 -12 -12 -9 -15 4 -3 12 1 19 10 14 17 11 19 -10 5z"/>
<path d="M5295 3190 c-3 -5 -1 -10 4 -10 6 0 11 5 11 10 0 6 -2 10 -4 10 -3 0
-8 -4 -11 -10z"/>
<path d="M2836 2589 c3 -10 0 -20 -7 -25 -8 -4 -10 -3 -5 4 4 7 2 12 -3 12 -6
0 -11 -5 -11 -12 0 -6 -3 -8 -7 -5 -3 4 -12 -2 -20 -13 -8 -11 -24 -20 -36
-20 -12 0 -17 -4 -12 -8 16 -12 17 -35 1 -29 -9 4 -13 0 -11 -11 2 -9 4 -21 4
-25 1 -5 4 -6 9 -4 4 3 8 -9 9 -26 4 -49 6 -56 14 -51 4 2 10 0 14 -6 4 -6 10
-8 15 -5 4 3 14 -3 21 -13 13 -15 12 -16 -3 -3 -10 7 -18 9 -18 3 0 -12 29
-24 40 -17 5 3 7 -4 5 -15 -2 -11 0 -18 5 -15 5 3 11 1 15 -5 3 -5 15 -10 26
-10 11 0 17 -4 14 -10 -3 -5 -2 -10 4 -10 5 0 12 6 14 13 3 7 6 6 6 -5 1 -9 6
-20 13 -24 7 -4 8 -3 4 4 -4 7 -2 12 3 12 6 0 11 -8 11 -17 0 -15 2 -16 10 -3
8 12 10 12 10 -5 0 -13 3 -16 8 -8 9 14 26 5 35 -21 6 -15 10 -16 22 -6 14 12
20 7 15 -15 -1 -5 9 -1 22 10 13 12 18 14 10 4 -11 -14 -8 -18 20 -30 18 -8
37 -12 42 -11 5 2 3 -5 -4 -15 -8 -10 -11 -15 -6 -11 9 8 56 -35 56 -52 0 -5
5 -10 10 -10 6 0 10 -9 10 -21 0 -11 5 -17 10 -14 6 3 10 -1 10 -10 0 -9 -4
-13 -10 -10 -5 3 -10 1 -10 -4 0 -6 8 -11 18 -11 14 0 15 -2 2 -10 -12 -8 -12
-10 5 -10 17 0 17 -2 5 -10 -9 -6 -11 -10 -3 -10 7 0 10 -7 6 -17 -4 -11 -3
-14 5 -9 7 4 12 2 12 -3 0 -6 -6 -11 -12 -11 -9 0 -8 -4 2 -10 8 -5 10 -10 5
-10 -6 0 -11 -9 -11 -20 0 -11 6 -20 13 -20 7 0 13 -5 13 -11 0 -5 -6 -7 -12
-3 -10 6 -10 4 0 -8 10 -13 10 -17 0 -22 -7 -3 -3 -3 10 0 21 5 28 -7 23 -38
0 -4 6 -5 15 -1 13 5 13 7 2 14 -11 7 -11 9 0 9 8 0 22 -10 33 -22 11 -13 19
-18 18 -13 -3 22 2 29 11 15 8 -12 10 -12 10 5 0 16 2 17 10 5 8 -13 11 -13
22 -1 11 12 10 13 -2 7 -12 -6 -12 -5 1 6 9 7 14 19 11 26 -2 7 2 11 10 10 7
-2 12 3 11 10 -2 6 2 12 7 12 6 0 10 4 10 10 0 5 -6 8 -12 6 -7 -1 -10 -1 -5
1 4 3 5 9 2 13 -3 5 4 7 16 5 17 -4 19 -2 9 10 -10 12 -10 15 0 15 8 0 10 3 7
7 -4 3 -2 12 4 20 9 10 8 13 0 13 -7 0 -9 5 -6 10 4 6 10 8 14 6 4 -3 7 5 7
17 -1 12 4 21 10 20 5 -1 10 10 10 25 -1 20 3 26 17 24 10 -2 17 3 17 14 0 13
3 14 15 4 12 -10 14 -8 10 8 -3 15 1 19 16 15 18 -5 27 11 12 20 -5 2 -3 2 4
1 6 -2 14 0 16 4 2 4 2 2 1 -5 -3 -13 21 -7 43 9 7 6 17 7 22 3 6 -3 8 0 5 8
-3 8 0 18 6 22 6 3 10 3 9 -2 -4 -21 3 -24 19 -6 9 10 13 13 9 7 -9 -13 2 -13
41 0 12 4 22 12 22 18 0 6 3 9 6 5 4 -3 13 1 21 9 11 10 19 12 27 5 9 -8 18
-6 32 5 10 8 13 12 5 8 -10 -5 -12 -3 -7 5 5 7 15 10 23 6 12 -4 13 -2 5 8 -9
10 -5 13 18 11 22 -1 27 2 23 14 -5 12 -2 14 11 9 11 -5 15 -3 10 5 -5 7 -2 9
9 5 12 -4 14 -2 10 10 -4 10 -2 14 4 10 7 -5 10 2 9 18 -2 13 1 22 6 19 5 -3
6 9 3 26 -4 20 -2 29 5 25 6 -3 7 0 4 9 -3 9 -11 13 -17 9 -6 -4 -8 0 -4 11 4
11 1 19 -11 23 -9 4 -24 16 -33 27 -16 20 -44 14 -33 -7 3 -7 0 -5 -8 4 -14
17 -62 33 -52 18 3 -5 0 -9 -5 -9 -6 0 -11 5 -11 10 0 6 -5 10 -11 10 -6 0 -9
-6 -6 -14 6 -15 -17 -16 -30 -1 -4 4 -2 5 6 0 10 -6 12 -4 6 5 -6 10 -11 9
-22 -5 -9 -13 -13 -14 -13 -5 0 9 -5 7 -15 -6 -10 -13 -13 -14 -10 -3 4 10 0
16 -10 16 -8 0 -15 -4 -15 -9 0 -4 -5 -8 -11 -8 -5 0 -8 4 -5 9 7 10 -13 9
-31 -2 -6 -4 -14 -3 -17 2 -7 10 -25 9 -43 -2 -8 -5 -13 -3 -13 4 0 8 -4 8
-15 -1 -12 -10 -15 -10 -15 1 0 8 -6 5 -15 -7 -13 -16 -14 -17 -9 -1 7 19 -15
21 -28 2 -5 -6 -8 -4 -8 5 0 13 -1 13 -10 0 -6 -10 -10 -11 -10 -2 0 6 -5 12
-11 12 -5 0 -7 -6 -3 -12 6 -10 4 -10 -8 0 -8 7 -24 9 -34 6 -17 -6 -17 -5 1
9 19 14 17 15 -17 4 -21 -7 -38 -15 -38 -20 0 -4 -6 -2 -14 5 -7 7 -13 17 -11
23 1 5 0 7 -2 2 -3 -4 -10 -4 -15 -1 -7 4 -8 2 -4 -4 10 -17 -47 -10 -62 8 -8
8 -11 11 -9 5 3 -5 -6 -10 -19 -10 -13 0 -24 3 -24 6 0 3 -14 3 -31 1 -18 -3
-29 -1 -26 4 3 5 -8 10 -24 10 -16 1 -27 -2 -24 -6 2 -3 -2 -7 -10 -7 -8 0
-11 5 -8 10 4 6 -2 8 -15 5 -12 -4 -24 -2 -27 3 -3 4 -12 6 -20 2 -8 -3 -15
-1 -15 5 0 6 6 12 13 15 6 2 0 4 -15 3 -14 0 -24 -4 -21 -8 8 -14 -15 -8 -31
8 -9 8 -16 11 -16 5 0 -10 -44 -8 -72 4 -10 4 -15 12 -11 19 4 7 1 7 -7 -1
-11 -10 -16 -9 -27 5 -11 15 -12 15 -7 1z m28 -275 c3 -8 2 -12 -4 -9 -6 3
-10 10 -10 16 0 14 7 11 14 -7z"/>
<path d="M2895 2580 c-4 -6 -5 -10 -3 -11 25 -6 38 -6 38 1 0 12 -29 20 -35
10z"/>
<path d="M2767 2563 c-4 -3 -7 -11 -7 -17 0 -6 5 -5 12 2 6 6 9 14 7 17 -3 3
-9 2 -12 -2z"/>
<path d="M3070 2539 c0 -5 5 -7 10 -4 6 3 10 8 10 11 0 2 -4 4 -10 4 -5 0 -10
-5 -10 -11z"/>
<path d="M3306 2508 c3 -5 10 -6 15 -3 13 9 11 12 -6 12 -8 0 -12 -4 -9 -9z"/>
<path d="M6196 2073 c-6 -14 -5 -15 5 -6 7 7 10 15 7 18 -3 3 -9 -2 -12 -12z"/>
<path d="M5540 1589 c0 -5 5 -7 10 -4 6 3 10 8 10 11 0 2 -4 4 -10 4 -5 0 -10
-5 -10 -11z"/>
<path d="M3026 1088 c3 -5 10 -6 15 -3 13 9 11 12 -6 12 -8 0 -12 -4 -9 -9z"/>
<path d="M56 494 c-5 -14 -4 -15 9 -4 17 14 19 20 6 20 -5 0 -12 -7 -15 -16z"/>
</g>
</svg>
